<svg width="400" height="400" viewBox="0 0 400 400" fill="none" xmlns="http://www.w3.org/2000/svg">
<rect x="1.5" y="1.5" width="397" height="397" fill="#FAFBFF" stroke="#444444" stroke-width="3"/>
<line x1="133.5" y1="6.55671e-08" x2="133.5" y2="400" stroke="#444444" stroke-width="3"/>
<line x1="266.5" y1="6.55671e-08" x2="266.5" y2="400" stroke="#444444" stroke-width="3"/>
<line x1="400" y1="131.5" x2="-1.31134e-07" y2="131.5" stroke="#444444" stroke-width="3"/>
<line x1="400" y1="264.833" x2="-1.31134e-07" y2="264.833" stroke="#444444" stroke-width="3"/>
<path d="M47.3732 77.42C45.8932 77.42 44.5632 77.14 43.3832 76.58C42.2232 76.02 41.3032 75.21 40.6232 74.15C39.9632 73.09 39.6332 71.81 39.6332 70.31V69.74H42.0632V70.28C42.0632 71.82 42.5532 73.03 43.5332 73.91C44.5132 74.79 45.7932 75.23 47.3732 75.23C48.9732 75.23 50.2132 74.82 51.0932 74C51.9932 73.16 52.4432 72.11 52.4432 70.85V70.61C52.4432 69.69 52.2232 68.95 51.7832 68.39C51.3432 67.81 50.7432 67.39 49.9832 67.13C49.2432 66.85 48.4232 66.71 47.5232 66.71H44.1032V63.68L52.1132 58.55V58.19H40.1432V56H54.6932V59.39L46.8632 64.43V64.79H48.3632C49.5432 64.79 50.6232 65.01 51.6032 65.45C52.6032 65.87 53.3932 66.51 53.9732 67.37C54.5732 68.21 54.8732 69.27 54.8732 70.55V70.88C54.8732 72.2 54.5632 73.35 53.9432 74.33C53.3232 75.31 52.4532 76.07 51.3332 76.61C50.2132 77.15 48.8932 77.42 47.3732 77.42ZM67.1887 77.42C65.7487 77.42 64.4587 77.14 63.3187 76.58C62.1987 76 61.3087 75.18 60.6487 74.12C60.0087 73.06 59.6887 71.8 59.6887 70.34V63.02C59.6887 61.44 59.9987 60.1 60.6187 59C61.2387 57.9 62.1087 57.06 63.2287 56.48C64.3687 55.88 65.7187 55.58 67.2787 55.58C68.8187 55.58 70.1287 55.86 71.2087 56.42C72.3087 56.96 73.1387 57.71 73.6987 58.67C74.2787 59.61 74.5687 60.7 74.5687 61.94H72.1087C72.1087 60.7 71.7087 59.7 70.9087 58.94C70.1087 58.16 68.8987 57.77 67.2787 57.77C65.6387 57.77 64.3687 58.22 63.4687 59.12C62.5687 60 62.1187 61.22 62.1187 62.78V65.69H62.5387C62.8987 65.09 63.4987 64.54 64.3387 64.04C65.1787 63.52 66.3487 63.26 67.8487 63.26C69.1087 63.26 70.2587 63.54 71.2987 64.1C72.3387 64.66 73.1687 65.45 73.7887 66.47C74.4087 67.49 74.7187 68.7 74.7187 70.1V70.46C74.7187 71.88 74.3887 73.11 73.7287 74.15C73.0887 75.19 72.1987 76 71.0587 76.58C69.9187 77.14 68.6287 77.42 67.1887 77.42ZM67.1887 75.23C68.7087 75.23 69.9387 74.8 70.8787 73.94C71.8187 73.08 72.2887 71.91 72.2887 70.43V70.19C72.2887 69.19 72.0687 68.33 71.6287 67.61C71.2087 66.89 70.6187 66.33 69.8587 65.93C69.0987 65.51 68.2087 65.3 67.1887 65.3C66.1887 65.3 65.3087 65.51 64.5487 65.93C63.7887 66.33 63.1887 66.89 62.7487 67.61C62.3287 68.33 62.1187 69.19 62.1187 70.19V70.43C62.1187 71.91 62.5887 73.08 63.5287 73.94C64.4687 74.8 65.6887 75.23 67.1887 75.23ZM79.2306 77V74.81C79.2306 73.31 79.4906 72.11 80.0106 71.21C80.5506 70.31 81.2906 69.59 82.2306 69.05C83.1906 68.49 84.3306 68.01 85.6506 67.61L87.3006 67.1C88.2006 66.82 88.9906 66.48 89.6706 66.08C90.3506 65.66 90.8806 65.14 91.2606 64.52C91.6406 63.88 91.8306 63.1 91.8306 62.18V62.06C91.8306 60.74 91.3706 59.7 90.4506 58.94C89.5306 58.16 88.3506 57.77 86.9106 57.77C85.3906 57.77 84.1506 58.18 83.1906 59C82.2306 59.8 81.7506 61.02 81.7506 62.66V63.08H79.3506V62.69C79.3506 61.17 79.6806 59.88 80.3406 58.82C81.0006 57.76 81.9006 56.96 83.0406 56.42C84.1806 55.86 85.4706 55.58 86.9106 55.58C88.3506 55.58 89.6206 55.85 90.7206 56.39C91.8406 56.93 92.7106 57.68 93.3306 58.64C93.9506 59.6 94.2606 60.72 94.2606 62V62.27C94.2606 63.63 93.9906 64.76 93.4506 65.66C92.9106 66.54 92.1606 67.26 91.2006 67.82C90.2606 68.38 89.1506 68.86 87.8706 69.26L86.2506 69.77C85.2306 70.09 84.3806 70.43 83.7006 70.79C83.0406 71.13 82.5406 71.57 82.2006 72.11C81.8606 72.65 81.6906 73.38 81.6906 74.3V74.81H94.0806V77H79.2306Z" fill="#2B2B2B"/>
<path d="M181.804 77V57.62H181.354L177.274 65.09H174.634L179.644 56H184.234V77H181.804ZM192.693 77V76.25C192.693 75.55 192.753 74.96 192.873 74.48C192.993 74 193.223 73.43 193.563 72.77L201.573 58.52V58.19H189.093V56H204.123V58.88L195.753 73.88C195.513 74.3 195.343 74.68 195.243 75.02C195.163 75.36 195.123 75.79 195.123 76.31V77H192.693ZM215.507 77.42C213.967 77.42 212.647 77.15 211.547 76.61C210.467 76.05 209.647 75.29 209.087 74.33C208.527 73.37 208.247 72.28 208.247 71.06H210.677C210.677 72.3 211.087 73.31 211.907 74.09C212.727 74.85 213.927 75.23 215.507 75.23C217.167 75.23 218.437 74.79 219.317 73.91C220.217 73.01 220.667 71.78 220.667 70.22V67.31H220.277C219.897 67.91 219.287 68.47 218.447 68.99C217.627 69.49 216.467 69.74 214.967 69.74C213.707 69.74 212.547 69.46 211.487 68.9C210.447 68.34 209.617 67.55 208.997 66.53C208.377 65.51 208.067 64.3 208.067 62.9V62.54C208.067 61.1 208.397 59.87 209.057 58.85C209.717 57.81 210.607 57.01 211.727 56.45C212.867 55.87 214.157 55.58 215.597 55.58C217.057 55.58 218.347 55.87 219.467 56.45C220.607 57.01 221.497 57.82 222.137 58.88C222.777 59.92 223.097 61.18 223.097 62.66V69.98C223.097 71.54 222.787 72.88 222.167 74C221.567 75.1 220.697 75.95 219.557 76.55C218.417 77.13 217.067 77.42 215.507 77.42ZM215.597 67.7C216.597 67.7 217.477 67.5 218.237 67.1C218.997 66.68 219.587 66.11 220.007 65.39C220.447 64.65 220.667 63.79 220.667 62.81V62.57C220.667 61.07 220.197 59.9 219.257 59.06C218.337 58.2 217.117 57.77 215.597 57.77C214.077 57.77 212.847 58.2 211.907 59.06C210.967 59.9 210.497 61.07 210.497 62.57V62.81C210.497 63.79 210.707 64.65 211.127 65.39C211.567 66.11 212.167 66.68 212.927 67.1C213.707 67.5 214.597 67.7 215.597 67.7Z" fill="#2B2B2B"/>
<path d="M314.241 77V72.71H303.291V69.83L312.111 56H316.671V70.52H320.271V72.71H316.671V77H314.241ZM305.721 70.52H314.241V57.47H313.821L305.721 70.16V70.52ZM332.181 77.42C329.801 77.42 327.901 76.72 326.481 75.32C325.081 73.9 324.381 71.78 324.381 68.96V64.04C324.381 61.24 325.081 59.13 326.481 57.71C327.901 56.29 329.801 55.58 332.181 55.58C334.581 55.58 336.481 56.29 337.881 57.71C339.301 59.13 340.011 61.24 340.011 64.04V68.96C340.011 71.78 339.301 73.9 337.881 75.32C336.481 76.72 334.581 77.42 332.181 77.42ZM332.181 75.23C333.981 75.23 335.331 74.69 336.231 73.61C337.131 72.53 337.581 71.02 337.581 69.08V63.89C337.581 61.95 337.121 60.45 336.201 59.39C335.281 58.31 333.941 57.77 332.181 57.77C330.421 57.77 329.081 58.31 328.161 59.39C327.261 60.47 326.811 61.97 326.811 63.89V69.08C326.811 71.04 327.261 72.56 328.161 73.64C329.061 74.7 330.401 75.23 332.181 75.23ZM352.6 77.42C351.16 77.42 349.87 77.14 348.73 76.58C347.61 76 346.72 75.18 346.06 74.12C345.42 73.06 345.1 71.8 345.1 70.34V63.02C345.1 61.44 345.41 60.1 346.03 59C346.65 57.9 347.52 57.06 348.64 56.48C349.78 55.88 351.13 55.58 352.69 55.58C354.23 55.58 355.54 55.86 356.62 56.42C357.72 56.96 358.55 57.71 359.11 58.67C359.69 59.61 359.98 60.7 359.98 61.94H357.52C357.52 60.7 357.12 59.7 356.32 58.94C355.52 58.16 354.31 57.77 352.69 57.77C351.05 57.77 349.78 58.22 348.88 59.12C347.98 60 347.53 61.22 347.53 62.78V65.69H347.95C348.31 65.09 348.91 64.54 349.75 64.04C350.59 63.52 351.76 63.26 353.26 63.26C354.52 63.26 355.67 63.54 356.71 64.1C357.75 64.66 358.58 65.45 359.2 66.47C359.82 67.49 360.13 68.7 360.13 70.1V70.46C360.13 71.88 359.8 73.11 359.14 74.15C358.5 75.19 357.61 76 356.47 76.58C355.33 77.14 354.04 77.42 352.6 77.42ZM352.6 75.23C354.12 75.23 355.35 74.8 356.29 73.94C357.23 73.08 357.7 71.91 357.7 70.43V70.19C357.7 69.19 357.48 68.33 357.04 67.61C356.62 66.89 356.03 66.33 355.27 65.93C354.51 65.51 353.62 65.3 352.6 65.3C351.6 65.3 350.72 65.51 349.96 65.93C349.2 66.33 348.6 66.89 348.16 67.61C347.74 68.33 347.53 69.19 347.53 70.19V70.43C347.53 71.91 348 73.08 348.94 73.94C349.88 74.8 351.1 75.23 352.6 75.23Z" fill="#2B2B2B"/>
<path d="M40.9367 210V207.81C40.9367 206.31 41.1967 205.11 41.7167 204.21C42.2567 203.31 42.9967 202.59 43.9367 202.05C44.8967 201.49 46.0367 201.01 47.3567 200.61L49.0067 200.1C49.9067 199.82 50.6967 199.48 51.3767 199.08C52.0567 198.66 52.5867 198.14 52.9667 197.52C53.3467 196.88 53.5367 196.1 53.5367 195.18V195.06C53.5367 193.74 53.0767 192.7 52.1567 191.94C51.2367 191.16 50.0567 190.77 48.6167 190.77C47.0967 190.77 45.8567 191.18 44.8967 192C43.9367 192.8 43.4567 194.02 43.4567 195.66V196.08H41.0567V195.69C41.0567 194.17 41.3867 192.88 42.0467 191.82C42.7067 190.76 43.6067 189.96 44.7467 189.42C45.8867 188.86 47.1767 188.58 48.6167 188.58C50.0567 188.58 51.3267 188.85 52.4267 189.39C53.5467 189.93 54.4167 190.68 55.0367 191.64C55.6567 192.6 55.9667 193.72 55.9667 195V195.27C55.9667 196.63 55.6967 197.76 55.1567 198.66C54.6167 199.54 53.8667 200.26 52.9067 200.82C51.9667 201.38 50.8567 201.86 49.5767 202.26L47.9567 202.77C46.9367 203.09 46.0867 203.43 45.4067 203.79C44.7467 204.13 44.2467 204.57 43.9067 205.11C43.5667 205.65 43.3967 206.38 43.3967 207.3V207.81H55.7867V210H40.9367ZM68.2529 210.42C66.6329 210.42 65.2229 210.18 64.0229 209.7C62.8429 209.2 61.9229 208.51 61.2629 207.63C60.6229 206.73 60.3029 205.68 60.3029 204.48V204.15C60.3029 203.11 60.5229 202.25 60.9629 201.57C61.4029 200.89 61.9329 200.37 62.5529 200.01C63.1929 199.63 63.7829 199.39 64.3229 199.29V198.9C63.7829 198.74 63.2229 198.48 62.6429 198.12C62.0829 197.76 61.6129 197.27 61.2329 196.65C60.8729 196.03 60.6929 195.27 60.6929 194.37V194.04C60.6929 192.9 61.0129 191.93 61.6529 191.13C62.3129 190.31 63.2129 189.68 64.3529 189.24C65.4929 188.8 66.7929 188.58 68.2529 188.58C69.7329 188.58 71.0329 188.8 72.1529 189.24C73.2929 189.68 74.1829 190.31 74.8229 191.13C75.4829 191.93 75.8129 192.9 75.8129 194.04V194.37C75.8129 195.27 75.6329 196.03 75.2729 196.65C74.9129 197.27 74.4529 197.76 73.8929 198.12C73.3329 198.48 72.7729 198.74 72.2129 198.9V199.29C72.7729 199.39 73.3629 199.63 73.9829 200.01C74.6029 200.37 75.1229 200.89 75.5429 201.57C75.9829 202.25 76.2029 203.11 76.2029 204.15V204.48C76.2029 205.68 75.8829 206.73 75.2429 207.63C74.6029 208.51 73.6829 209.2 72.4829 209.7C71.3029 210.18 69.8929 210.42 68.2529 210.42ZM68.2529 208.23C69.9529 208.23 71.2929 207.9 72.2729 207.24C73.2729 206.58 73.7729 205.62 73.7729 204.36V204.12C73.7729 202.86 73.2829 201.9 72.3029 201.24C71.3229 200.58 69.9729 200.25 68.2529 200.25C66.5529 200.25 65.2129 200.58 64.2329 201.24C63.2529 201.9 62.7629 202.86 62.7629 204.12V204.36C62.7629 205.62 63.2529 206.58 64.2329 207.24C65.2329 207.9 66.5729 208.23 68.2529 208.23ZM68.2529 198.06C69.8529 198.06 71.1029 197.76 72.0029 197.16C72.9229 196.54 73.3829 195.67 73.3829 194.55V194.31C73.3829 193.17 72.9229 192.3 72.0029 191.7C71.0829 191.08 69.8329 190.77 68.2529 190.77C66.6729 190.77 65.4229 191.08 64.5029 191.7C63.5829 192.3 63.1229 193.17 63.1229 194.31V194.55C63.1229 195.67 63.5829 196.54 64.5029 197.16C65.4229 197.76 66.6729 198.06 68.2529 198.06ZM86.8243 210V190.62H86.3743L82.2943 198.09H79.6543L84.6643 189H89.2543V210H86.8243Z" fill="#2B2B2B"/>
<path d="M173.535 219V185.4H194.655V191.16H179.871V199.272H193.503V205.032H179.871V219H173.535ZM213.06 219.672C209.092 219.672 205.908 218.584 203.508 216.408C201.108 214.2 199.908 210.872 199.908 206.424V197.976C199.908 193.656 201.108 190.376 203.508 188.136C205.908 185.864 209.092 184.728 213.06 184.728C217.06 184.728 220.244 185.864 222.612 188.136C225.012 190.376 226.212 193.656 226.212 197.976V206.424C226.212 210.872 225.012 214.2 222.612 216.408C220.244 218.584 217.06 219.672 213.06 219.672ZM213.06 214.2C215.46 214.2 217.22 213.544 218.34 212.232C219.492 210.92 220.068 209.048 220.068 206.616V197.688C220.068 195.224 219.428 193.368 218.148 192.12C216.9 190.84 215.204 190.2 213.06 190.2C210.852 190.2 209.124 190.856 207.876 192.168C206.66 193.48 206.052 195.32 206.052 197.688V206.616C206.052 209.144 206.628 211.048 207.78 212.328C208.964 213.576 210.724 214.2 213.06 214.2Z" fill="#3136E5"/>
<path d="M300.865 219.672C296.897 219.672 293.713 218.584 291.312 216.408C288.913 214.2 287.713 210.872 287.713 206.424V197.976C287.713 193.656 288.913 190.376 291.312 188.136C293.713 185.864 296.897 184.728 300.865 184.728C304.865 184.728 308.049 185.864 310.417 188.136C312.817 190.376 314.017 193.656 314.017 197.976V206.424C314.017 210.872 312.817 214.2 310.417 216.408C308.049 218.584 304.865 219.672 300.865 219.672ZM300.865 214.2C303.265 214.2 305.025 213.544 306.145 212.232C307.297 210.92 307.873 209.048 307.873 206.616V197.688C307.873 195.224 307.233 193.368 305.953 192.12C304.705 190.84 303.009 190.2 300.865 190.2C298.657 190.2 296.929 190.856 295.681 192.168C294.465 193.48 293.857 195.32 293.857 197.688V206.616C293.857 209.144 294.433 211.048 295.585 212.328C296.769 213.576 298.529 214.2 300.865 214.2ZM333.49 219.672C329.522 219.672 326.338 218.584 323.938 216.408C321.538 214.2 320.338 210.872 320.338 206.424V197.976C320.338 193.656 321.538 190.376 323.938 188.136C326.338 185.864 329.522 184.728 333.49 184.728C337.49 184.728 340.674 185.864 343.042 188.136C345.442 190.376 346.642 193.656 346.642 197.976V206.424C346.642 210.872 345.442 214.2 343.042 216.408C340.674 218.584 337.49 219.672 333.49 219.672ZM333.49 214.2C335.89 214.2 337.65 213.544 338.77 212.232C339.922 210.92 340.498 209.048 340.498 206.616V197.688C340.498 195.224 339.858 193.368 338.578 192.12C337.33 190.84 335.634 190.2 333.49 190.2C331.282 190.2 329.554 190.856 328.306 192.168C327.09 193.48 326.482 195.32 326.482 197.688V206.616C326.482 209.144 327.058 211.048 328.21 212.328C329.394 213.576 331.154 214.2 333.49 214.2ZM366.115 219.672C362.147 219.672 358.963 218.584 356.562 216.408C354.163 214.2 352.963 210.872 352.963 206.424V197.976C352.963 193.656 354.163 190.376 356.562 188.136C358.963 185.864 362.147 184.728 366.115 184.728C370.115 184.728 373.299 185.864 375.667 188.136C378.067 190.376 379.267 193.656 379.267 197.976V206.424C379.267 210.872 378.067 214.2 375.667 216.408C373.299 218.584 370.115 219.672 366.115 219.672ZM366.115 214.2C368.515 214.2 370.275 213.544 371.395 212.232C372.547 210.92 373.123 209.048 373.123 206.616V197.688C373.123 195.224 372.483 193.368 371.203 192.12C369.955 190.84 368.259 190.2 366.115 190.2C363.907 190.2 362.179 190.856 360.931 192.168C359.715 193.48 359.107 195.32 359.107 197.688V206.616C359.107 209.144 359.683 211.048 360.835 212.328C362.019 213.576 363.779 214.2 366.115 214.2Z" fill="#3136E5"/>
<path d="M41.8586 343V340.81C41.8586 339.31 42.1186 338.11 42.6386 337.21C43.1786 336.31 43.9186 335.59 44.8586 335.05C45.8186 334.49 46.9586 334.01 48.2786 333.61L49.9286 333.1C50.8286 332.82 51.6186 332.48 52.2986 332.08C52.9786 331.66 53.5086 331.14 53.8886 330.52C54.2686 329.88 54.4586 329.1 54.4586 328.18V328.06C54.4586 326.74 53.9986 325.7 53.0786 324.94C52.1586 324.16 50.9786 323.77 49.5386 323.77C48.0186 323.77 46.7786 324.18 45.8186 325C44.8586 325.8 44.3786 327.02 44.3786 328.66V329.08H41.9786V328.69C41.9786 327.17 42.3086 325.88 42.9686 324.82C43.6286 323.76 44.5286 322.96 45.6686 322.42C46.8086 321.86 48.0986 321.58 49.5386 321.58C50.9786 321.58 52.2486 321.85 53.3486 322.39C54.4686 322.93 55.3386 323.68 55.9586 324.64C56.5786 325.6 56.8886 326.72 56.8886 328V328.27C56.8886 329.63 56.6186 330.76 56.0786 331.66C55.5386 332.54 54.7886 333.26 53.8286 333.82C52.8886 334.38 51.7786 334.86 50.4986 335.26L48.8786 335.77C47.8586 336.09 47.0086 336.43 46.3286 336.79C45.6686 337.13 45.1686 337.57 44.8286 338.11C44.4886 338.65 44.3186 339.38 44.3186 340.3V340.81H56.7086V343H41.8586ZM68.7268 343.42C67.1868 343.42 65.8668 343.15 64.7668 342.61C63.6868 342.05 62.8668 341.29 62.3068 340.33C61.7468 339.37 61.4668 338.28 61.4668 337.06H63.8968C63.8968 338.3 64.3068 339.31 65.1268 340.09C65.9468 340.85 67.1468 341.23 68.7268 341.23C70.3868 341.23 71.6568 340.79 72.5368 339.91C73.4368 339.01 73.8868 337.78 73.8868 336.22V333.31H73.4968C73.1168 333.91 72.5068 334.47 71.6668 334.99C70.8468 335.49 69.6868 335.74 68.1868 335.74C66.9268 335.74 65.7668 335.46 64.7068 334.9C63.6668 334.34 62.8368 333.55 62.2168 332.53C61.5968 331.51 61.2868 330.3 61.2868 328.9V328.54C61.2868 327.1 61.6168 325.87 62.2768 324.85C62.9368 323.81 63.8268 323.01 64.9468 322.45C66.0868 321.87 67.3768 321.58 68.8168 321.58C70.2768 321.58 71.5668 321.87 72.6868 322.45C73.8268 323.01 74.7168 323.82 75.3568 324.88C75.9968 325.92 76.3168 327.18 76.3168 328.66V335.98C76.3168 337.54 76.0068 338.88 75.3868 340C74.7868 341.1 73.9168 341.95 72.7768 342.55C71.6368 343.13 70.2868 343.42 68.7268 343.42ZM68.8168 333.7C69.8168 333.7 70.6968 333.5 71.4568 333.1C72.2168 332.68 72.8068 332.11 73.2268 331.39C73.6668 330.65 73.8868 329.79 73.8868 328.81V328.57C73.8868 327.07 73.4168 325.9 72.4768 325.06C71.5568 324.2 70.3368 323.77 68.8168 323.77C67.2968 323.77 66.0668 324.2 65.1268 325.06C64.1868 325.9 63.7168 327.07 63.7168 328.57V328.81C63.7168 329.79 63.9268 330.65 64.3468 331.39C64.7868 332.11 65.3868 332.68 66.1468 333.1C66.9268 333.5 67.8168 333.7 68.8168 333.7ZM88.716 343.42C87.236 343.42 85.906 343.14 84.726 342.58C83.566 342.02 82.646 341.21 81.966 340.15C81.306 339.09 80.976 337.81 80.976 336.31V335.74H83.406V336.28C83.406 337.82 83.896 339.03 84.876 339.91C85.856 340.79 87.136 341.23 88.716 341.23C90.316 341.23 91.556 340.82 92.436 340C93.336 339.16 93.786 338.11 93.786 336.85V336.61C93.786 335.69 93.566 334.95 93.126 334.39C92.686 333.81 92.086 333.39 91.326 333.13C90.586 332.85 89.766 332.71 88.866 332.71H85.446V329.68L93.456 324.55V324.19H81.486V322H96.036V325.39L88.206 330.43V330.79H89.706C90.886 330.79 91.966 331.01 92.946 331.45C93.946 331.87 94.736 332.51 95.316 333.37C95.916 334.21 96.216 335.27 96.216 336.55V336.88C96.216 338.2 95.906 339.35 95.286 340.33C94.666 341.31 93.796 342.07 92.676 342.61C91.556 343.15 90.236 343.42 88.716 343.42Z" fill="#2B2B2B"/>
<path d="M177.916 343V342.25C177.916 341.55 177.976 340.96 178.096 340.48C178.216 340 178.446 339.43 178.786 338.77L186.796 324.52V324.19H174.316V322H189.346V324.88L180.976 339.88C180.736 340.3 180.566 340.68 180.466 341.02C180.386 341.36 180.346 341.79 180.346 342.31V343H177.916ZM201.156 343.42C198.776 343.42 196.876 342.72 195.456 341.32C194.056 339.9 193.356 337.78 193.356 334.96V330.04C193.356 327.24 194.056 325.13 195.456 323.71C196.876 322.29 198.776 321.58 201.156 321.58C203.556 321.58 205.456 322.29 206.856 323.71C208.276 325.13 208.986 327.24 208.986 330.04V334.96C208.986 337.78 208.276 339.9 206.856 341.32C205.456 342.72 203.556 343.42 201.156 343.42ZM201.156 341.23C202.956 341.23 204.306 340.69 205.206 339.61C206.106 338.53 206.556 337.02 206.556 335.08V329.89C206.556 327.95 206.096 326.45 205.176 325.39C204.256 324.31 202.916 323.77 201.156 323.77C199.396 323.77 198.056 324.31 197.136 325.39C196.236 326.47 195.786 327.97 195.786 329.89V335.08C195.786 337.04 196.236 338.56 197.136 339.64C198.036 340.7 199.376 341.23 201.156 341.23ZM221.574 343.42C220.134 343.42 218.844 343.14 217.704 342.58C216.584 342 215.694 341.18 215.034 340.12C214.394 339.06 214.074 337.8 214.074 336.34V329.02C214.074 327.44 214.384 326.1 215.004 325C215.624 323.9 216.494 323.06 217.614 322.48C218.754 321.88 220.104 321.58 221.664 321.58C223.204 321.58 224.514 321.86 225.594 322.42C226.694 322.96 227.524 323.71 228.084 324.67C228.664 325.61 228.954 326.7 228.954 327.94H226.494C226.494 326.7 226.094 325.7 225.294 324.94C224.494 324.16 223.284 323.77 221.664 323.77C220.024 323.77 218.754 324.22 217.854 325.12C216.954 326 216.504 327.22 216.504 328.78V331.69H216.924C217.284 331.09 217.884 330.54 218.724 330.04C219.564 329.52 220.734 329.26 222.234 329.26C223.494 329.26 224.644 329.54 225.684 330.1C226.724 330.66 227.554 331.45 228.174 332.47C228.794 333.49 229.104 334.7 229.104 336.1V336.46C229.104 337.88 228.774 339.11 228.114 340.15C227.474 341.19 226.584 342 225.444 342.58C224.304 343.14 223.014 343.42 221.574 343.42ZM221.574 341.23C223.094 341.23 224.324 340.8 225.264 339.94C226.204 339.08 226.674 337.91 226.674 336.43V336.19C226.674 335.19 226.454 334.33 226.014 333.61C225.594 332.89 225.004 332.33 224.244 331.93C223.484 331.51 222.594 331.3 221.574 331.3C220.574 331.3 219.694 331.51 218.934 331.93C218.174 332.33 217.574 332.89 217.134 333.61C216.714 334.33 216.504 335.19 216.504 336.19V336.43C216.504 337.91 216.974 339.08 217.914 339.94C218.854 340.8 220.074 341.23 221.574 341.23Z" fill="#2B2B2B"/>
<path d="M312.764 343.42C311.144 343.42 309.734 343.18 308.534 342.7C307.354 342.2 306.434 341.51 305.774 340.63C305.134 339.73 304.814 338.68 304.814 337.48V337.15C304.814 336.11 305.034 335.25 305.474 334.57C305.914 333.89 306.444 333.37 307.064 333.01C307.704 332.63 308.294 332.39 308.834 332.29V331.9C308.294 331.74 307.734 331.48 307.154 331.12C306.594 330.76 306.124 330.27 305.744 329.65C305.384 329.03 305.204 328.27 305.204 327.37V327.04C305.204 325.9 305.524 324.93 306.164 324.13C306.824 323.31 307.724 322.68 308.864 322.24C310.004 321.8 311.304 321.58 312.764 321.58C314.244 321.58 315.544 321.8 316.664 322.24C317.804 322.68 318.694 323.31 319.334 324.13C319.994 324.93 320.324 325.9 320.324 327.04V327.37C320.324 328.27 320.144 329.03 319.784 329.65C319.424 330.27 318.964 330.76 318.404 331.12C317.844 331.48 317.284 331.74 316.724 331.9V332.29C317.284 332.39 317.874 332.63 318.494 333.01C319.114 333.37 319.634 333.89 320.054 334.57C320.494 335.25 320.714 336.11 320.714 337.15V337.48C320.714 338.68 320.394 339.73 319.754 340.63C319.114 341.51 318.194 342.2 316.994 342.7C315.814 343.18 314.404 343.42 312.764 343.42ZM312.764 341.23C314.464 341.23 315.804 340.9 316.784 340.24C317.784 339.58 318.284 338.62 318.284 337.36V337.12C318.284 335.86 317.794 334.9 316.814 334.24C315.834 333.58 314.484 333.25 312.764 333.25C311.064 333.25 309.724 333.58 308.744 334.24C307.764 334.9 307.274 335.86 307.274 337.12V337.36C307.274 338.62 307.764 339.58 308.744 340.24C309.744 340.9 311.084 341.23 312.764 341.23ZM312.764 331.06C314.364 331.06 315.614 330.76 316.514 330.16C317.434 329.54 317.894 328.67 317.894 327.55V327.31C317.894 326.17 317.434 325.3 316.514 324.7C315.594 324.08 314.344 323.77 312.764 323.77C311.184 323.77 309.934 324.08 309.014 324.7C308.094 325.3 307.634 326.17 307.634 327.31V327.55C307.634 328.67 308.094 329.54 309.014 330.16C309.934 330.76 311.184 331.06 312.764 331.06ZM335.535 343V338.71H324.585V335.83L333.405 322H337.965V336.52H341.565V338.71H337.965V343H335.535ZM327.015 336.52H335.535V323.47H335.115L327.015 336.16V336.52ZM353.205 343.42C351.585 343.42 350.175 343.18 348.975 342.7C347.795 342.2 346.875 341.51 346.215 340.63C345.575 339.73 345.255 338.68 345.255 337.48V337.15C345.255 336.11 345.475 335.25 345.915 334.57C346.355 333.89 346.885 333.37 347.505 333.01C348.145 332.63 348.735 332.39 349.275 332.29V331.9C348.735 331.74 348.175 331.48 347.595 331.12C347.035 330.76 346.565 330.27 346.185 329.65C345.825 329.03 345.645 328.27 345.645 327.37V327.04C345.645 325.9 345.965 324.93 346.605 324.13C347.265 323.31 348.165 322.68 349.305 322.24C350.445 321.8 351.745 321.58 353.205 321.58C354.685 321.58 355.985 321.8 357.105 322.24C358.245 322.68 359.135 323.31 359.775 324.13C360.435 324.93 360.765 325.9 360.765 327.04V327.37C360.765 328.27 360.585 329.03 360.225 329.65C359.865 330.27 359.405 330.76 358.845 331.12C358.285 331.48 357.725 331.74 357.165 331.9V332.29C357.725 332.39 358.315 332.63 358.935 333.01C359.555 333.37 360.075 333.89 360.495 334.57C360.935 335.25 361.155 336.11 361.155 337.15V337.48C361.155 338.68 360.835 339.73 360.195 340.63C359.555 341.51 358.635 342.2 357.435 342.7C356.255 343.18 354.845 343.42 353.205 343.42ZM353.205 341.23C354.905 341.23 356.245 340.9 357.225 340.24C358.225 339.58 358.725 338.62 358.725 337.36V337.12C358.725 335.86 358.235 334.9 357.255 334.24C356.275 333.58 354.925 333.25 353.205 333.25C351.505 333.25 350.165 333.58 349.185 334.24C348.205 334.9 347.715 335.86 347.715 337.12V337.36C347.715 338.62 348.205 339.58 349.185 340.24C350.185 340.9 351.525 341.23 353.205 341.23ZM353.205 331.06C354.805 331.06 356.055 330.76 356.955 330.16C357.875 329.54 358.335 328.67 358.335 327.55V327.31C358.335 326.17 357.875 325.3 356.955 324.7C356.035 324.08 354.785 323.77 353.205 323.77C351.625 323.77 350.375 324.08 349.455 324.7C348.535 325.3 348.075 326.17 348.075 327.31V327.55C348.075 328.67 348.535 329.54 349.455 330.16C350.375 330.76 351.625 331.06 353.205 331.06Z" fill="#2B2B2B"/>
<path d="M157.593 213V212.25C157.593 211.55 157.653 210.96 157.773 210.48C157.893 210 158.123 209.43 158.463 208.77L166.473 194.52V194.19H153.993V192H169.023V194.88L160.653 209.88C160.413 210.3 160.243 210.68 160.143 211.02C160.063 211.36 160.023 211.79 160.023 212.31V213H157.593Z" fill="#2B2B2B"/>
</svg>
