<svg width="400" height="400" viewBox="0 0 400 400" fill="none" xmlns="http://www.w3.org/2000/svg">
<rect x="1.5" y="1.5" width="397" height="397" fill="#FAFBFF" stroke="#444444" stroke-width="3"/>
<line x1="133.5" y1="6.55671e-08" x2="133.5" y2="400" stroke="#444444" stroke-width="3"/>
<line x1="266.5" y1="6.55671e-08" x2="266.5" y2="400" stroke="#444444" stroke-width="3"/>
<line x1="400" y1="131.5" x2="-1.31134e-07" y2="131.5" stroke="#444444" stroke-width="3"/>
<line x1="400" y1="264.833" x2="-1.31134e-07" y2="264.833" stroke="#444444" stroke-width="3"/>
<path d="M40.0197 77V74.81C40.0197 73.31 40.2797 72.11 40.7997 71.21C41.3397 70.31 42.0797 69.59 43.0197 69.05C43.9797 68.49 45.1197 68.01 46.4397 67.61L48.0897 67.1C48.9897 66.82 49.7797 66.48 50.4597 66.08C51.1397 65.66 51.6697 65.14 52.0497 64.52C52.4297 63.88 52.6197 63.1 52.6197 62.18V62.06C52.6197 60.74 52.1597 59.7 51.2397 58.94C50.3197 58.16 49.1397 57.77 47.6997 57.77C46.1797 57.77 44.9397 58.18 43.9797 59C43.0197 59.8 42.5397 61.02 42.5397 62.66V63.08H40.1397V62.69C40.1397 61.17 40.4697 59.88 41.1297 58.82C41.7897 57.76 42.6897 56.96 43.8297 56.42C44.9697 55.86 46.2597 55.58 47.6997 55.58C49.1397 55.58 50.4097 55.85 51.5097 56.39C52.6297 56.93 53.4997 57.68 54.1197 58.64C54.7397 59.6 55.0497 60.72 55.0497 62V62.27C55.0497 63.63 54.7797 64.76 54.2397 65.66C53.6997 66.54 52.9497 67.26 51.9897 67.82C51.0497 68.38 49.9397 68.86 48.6597 69.26L47.0397 69.77C46.0197 70.09 45.1697 70.43 44.4897 70.79C43.8297 71.13 43.3297 71.57 42.9897 72.11C42.6497 72.65 42.4797 73.38 42.4797 74.3V74.81H54.8697V77H40.0197ZM66.9787 77.42C65.4987 77.42 64.1687 77.14 62.9887 76.58C61.8287 76.02 60.9087 75.21 60.2287 74.15C59.5687 73.09 59.2387 71.81 59.2387 70.31V69.74H61.6687V70.28C61.6687 71.82 62.1587 73.03 63.1387 73.91C64.1187 74.79 65.3987 75.23 66.9787 75.23C68.5787 75.23 69.8187 74.82 70.6987 74C71.5987 73.16 72.0487 72.11 72.0487 70.85V70.61C72.0487 69.69 71.8287 68.95 71.3887 68.39C70.9487 67.81 70.3487 67.39 69.5887 67.13C68.8487 66.85 68.0287 66.71 67.1287 66.71H63.7087V63.68L71.7187 58.55V58.19H59.7487V56H74.2987V59.39L66.4687 64.43V64.79H67.9687C69.1487 64.79 70.2287 65.01 71.2087 65.45C72.2087 65.87 72.9987 66.51 73.5787 67.37C74.1787 68.21 74.4787 69.27 74.4787 70.55V70.88C74.4787 72.2 74.1687 73.35 73.5487 74.33C72.9287 75.31 72.0587 76.07 70.9387 76.61C69.8187 77.15 68.4987 77.42 66.9787 77.42ZM79.0841 77V74.81C79.0841 73.31 79.3441 72.11 79.8641 71.21C80.4041 70.31 81.1441 69.59 82.0841 69.05C83.0441 68.49 84.1841 68.01 85.5041 67.61L87.1541 67.1C88.0541 66.82 88.8441 66.48 89.5241 66.08C90.2041 65.66 90.7341 65.14 91.1141 64.52C91.4941 63.88 91.6841 63.1 91.6841 62.18V62.06C91.6841 60.74 91.2241 59.7 90.3041 58.94C89.3841 58.16 88.2041 57.77 86.7641 57.77C85.2441 57.77 84.0041 58.18 83.0441 59C82.0841 59.8 81.6041 61.02 81.6041 62.66V63.08H79.2041V62.69C79.2041 61.17 79.5341 59.88 80.1941 58.82C80.8541 57.76 81.7541 56.96 82.8941 56.42C84.0341 55.86 85.3241 55.58 86.7641 55.58C88.2041 55.58 89.4741 55.85 90.5741 56.39C91.6941 56.93 92.5641 57.68 93.1841 58.64C93.8041 59.6 94.1141 60.72 94.1141 62V62.27C94.1141 63.63 93.8441 64.76 93.3041 65.66C92.7641 66.54 92.0141 67.26 91.0541 67.82C90.1141 68.38 89.0041 68.86 87.7241 69.26L86.1041 69.77C85.0841 70.09 84.2341 70.43 83.5541 70.79C82.8941 71.13 82.3941 71.57 82.0541 72.11C81.7141 72.65 81.5441 73.38 81.5441 74.3V74.81H93.9341V77H79.0841Z" fill="#2B2B2B"/>
<path d="M181.701 77V76.25C181.701 75.55 181.761 74.96 181.881 74.48C182.001 74 182.231 73.43 182.571 72.77L190.581 58.52V58.19H178.101V56H193.131V58.88L184.761 73.88C184.521 74.3 184.351 74.68 184.251 75.02C184.171 75.36 184.131 75.79 184.131 76.31V77H181.701ZM202.991 77V57.62H202.541L198.461 65.09H195.821L200.831 56H205.421V77H202.991ZM217.03 77V57.62H216.58L212.5 65.09H209.86L214.87 56H219.46V77H217.03Z" fill="#2B2B2B"/>
<path d="M313.354 77.42C311.814 77.42 310.494 77.15 309.394 76.61C308.314 76.05 307.494 75.29 306.934 74.33C306.374 73.37 306.094 72.28 306.094 71.06H308.524C308.524 72.3 308.934 73.31 309.754 74.09C310.574 74.85 311.774 75.23 313.354 75.23C315.014 75.23 316.284 74.79 317.164 73.91C318.064 73.01 318.514 71.78 318.514 70.22V67.31H318.124C317.744 67.91 317.134 68.47 316.294 68.99C315.474 69.49 314.314 69.74 312.814 69.74C311.554 69.74 310.394 69.46 309.334 68.9C308.294 68.34 307.464 67.55 306.844 66.53C306.224 65.51 305.914 64.3 305.914 62.9V62.54C305.914 61.1 306.244 59.87 306.904 58.85C307.564 57.81 308.454 57.01 309.574 56.45C310.714 55.87 312.004 55.58 313.444 55.58C314.904 55.58 316.194 55.87 317.314 56.45C318.454 57.01 319.344 57.82 319.984 58.88C320.624 59.92 320.944 61.18 320.944 62.66V69.98C320.944 71.54 320.634 72.88 320.014 74C319.414 75.1 318.544 75.95 317.404 76.55C316.264 77.13 314.914 77.42 313.354 77.42ZM313.444 67.7C314.444 67.7 315.324 67.5 316.084 67.1C316.844 66.68 317.434 66.11 317.854 65.39C318.294 64.65 318.514 63.79 318.514 62.81V62.57C318.514 61.07 318.044 59.9 317.104 59.06C316.184 58.2 314.964 57.77 313.444 57.77C311.924 57.77 310.694 58.2 309.754 59.06C308.814 59.9 308.344 61.07 308.344 62.57V62.81C308.344 63.79 308.554 64.65 308.974 65.39C309.414 66.11 310.014 66.68 310.774 67.1C311.554 67.5 312.444 67.7 313.444 67.7ZM333.553 77.42C332.113 77.42 330.823 77.14 329.683 76.58C328.563 76 327.673 75.18 327.013 74.12C326.373 73.06 326.053 71.8 326.053 70.34V63.02C326.053 61.44 326.363 60.1 326.983 59C327.603 57.9 328.473 57.06 329.593 56.48C330.733 55.88 332.083 55.58 333.643 55.58C335.183 55.58 336.493 55.86 337.573 56.42C338.673 56.96 339.503 57.71 340.063 58.67C340.643 59.61 340.933 60.7 340.933 61.94H338.473C338.473 60.7 338.073 59.7 337.273 58.94C336.473 58.16 335.263 57.77 333.643 57.77C332.003 57.77 330.733 58.22 329.833 59.12C328.933 60 328.483 61.22 328.483 62.78V65.69H328.903C329.263 65.09 329.863 64.54 330.703 64.04C331.543 63.52 332.713 63.26 334.213 63.26C335.473 63.26 336.623 63.54 337.663 64.1C338.703 64.66 339.533 65.45 340.153 66.47C340.773 67.49 341.083 68.7 341.083 70.1V70.46C341.083 71.88 340.753 73.11 340.093 74.15C339.453 75.19 338.563 76 337.423 76.58C336.283 77.14 334.993 77.42 333.553 77.42ZM333.553 75.23C335.073 75.23 336.303 74.8 337.243 73.94C338.183 73.08 338.653 71.91 338.653 70.43V70.19C338.653 69.19 338.433 68.33 337.993 67.61C337.573 66.89 336.983 66.33 336.223 65.93C335.463 65.51 334.573 65.3 333.553 65.3C332.553 65.3 331.673 65.51 330.913 65.93C330.153 66.33 329.553 66.89 329.113 67.61C328.693 68.33 328.483 69.19 328.483 70.19V70.43C328.483 71.91 328.953 73.08 329.893 73.94C330.833 74.8 332.053 75.23 333.553 75.23ZM348.243 77V76.25C348.243 75.55 348.303 74.96 348.423 74.48C348.543 74 348.773 73.43 349.113 72.77L357.123 58.52V58.19H344.643V56H359.673V58.88L351.303 73.88C351.063 74.3 350.893 74.68 350.793 75.02C350.713 75.36 350.673 75.79 350.673 76.31V77H348.243Z" fill="#2B2B2B"/>
<path d="M46.7198 210V190.62H46.2698L42.1898 198.09H39.5498L44.5598 189H49.1498V210H46.7198ZM64.9588 210V205.71H54.0088V202.83L62.8288 189H67.3888V203.52H70.9888V205.71H67.3888V210H64.9588ZM56.4388 203.52H64.9588V190.47H64.5388L56.4388 203.16V203.52ZM82.6288 210.42C81.0088 210.42 79.5988 210.18 78.3988 209.7C77.2188 209.2 76.2988 208.51 75.6388 207.63C74.9988 206.73 74.6788 205.68 74.6788 204.48V204.15C74.6788 203.11 74.8988 202.25 75.3388 201.57C75.7788 200.89 76.3088 200.37 76.9288 200.01C77.5688 199.63 78.1588 199.39 78.6988 199.29V198.9C78.1588 198.74 77.5988 198.48 77.0188 198.12C76.4588 197.76 75.9888 197.27 75.6088 196.65C75.2488 196.03 75.0688 195.27 75.0688 194.37V194.04C75.0688 192.9 75.3888 191.93 76.0288 191.13C76.6888 190.31 77.5888 189.68 78.7288 189.24C79.8688 188.8 81.1688 188.58 82.6288 188.58C84.1088 188.58 85.4088 188.8 86.5288 189.24C87.6688 189.68 88.5588 190.31 89.1988 191.13C89.8588 191.93 90.1888 192.9 90.1888 194.04V194.37C90.1888 195.27 90.0088 196.03 89.6488 196.65C89.2888 197.27 88.8288 197.76 88.2688 198.12C87.7088 198.48 87.1488 198.74 86.5888 198.9V199.29C87.1488 199.39 87.7388 199.63 88.3588 200.01C88.9788 200.37 89.4988 200.89 89.9188 201.57C90.3588 202.25 90.5788 203.11 90.5788 204.15V204.48C90.5788 205.68 90.2588 206.73 89.6188 207.63C88.9788 208.51 88.0588 209.2 86.8588 209.7C85.6788 210.18 84.2688 210.42 82.6288 210.42ZM82.6288 208.23C84.3288 208.23 85.6688 207.9 86.6488 207.24C87.6488 206.58 88.1488 205.62 88.1488 204.36V204.12C88.1488 202.86 87.6588 201.9 86.6788 201.24C85.6988 200.58 84.3488 200.25 82.6288 200.25C80.9288 200.25 79.5888 200.58 78.6088 201.24C77.6288 201.9 77.1388 202.86 77.1388 204.12V204.36C77.1388 205.62 77.6288 206.58 78.6088 207.24C79.6088 207.9 80.9488 208.23 82.6288 208.23ZM82.6288 198.06C84.2288 198.06 85.4788 197.76 86.3788 197.16C87.2988 196.54 87.7588 195.67 87.7588 194.55V194.31C87.7588 193.17 87.2988 192.3 86.3788 191.7C85.4588 191.08 84.2088 190.77 82.6288 190.77C81.0488 190.77 79.7988 191.08 78.8788 191.7C77.9588 192.3 77.4988 193.17 77.4988 194.31V194.55C77.4988 195.67 77.9588 196.54 78.8788 197.16C79.7988 197.76 81.0488 198.06 82.6288 198.06Z" fill="#2B2B2B"/>
<path d="M174.262 219V185.4H195.382V191.16H180.598V199.272H194.23V205.032H180.598V219H174.262ZM212.634 219.672C210.138 219.672 207.962 219.256 206.106 218.424C204.282 217.592 202.858 216.392 201.834 214.824C200.842 213.256 200.346 211.384 200.346 209.208H206.586C206.586 210.552 207.05 211.72 207.978 212.712C208.938 213.704 210.49 214.2 212.634 214.2C214.81 214.2 216.474 213.64 217.626 212.52C218.778 211.368 219.354 209.816 219.354 207.864V204.408H218.49C217.946 205.048 217.114 205.656 215.994 206.232C214.906 206.808 213.274 207.096 211.098 207.096C209.178 207.096 207.386 206.68 205.722 205.848C204.058 205.016 202.714 203.816 201.69 202.248C200.666 200.648 200.154 198.728 200.154 196.488V195.912C200.154 193.672 200.682 191.72 201.738 190.056C202.794 188.392 204.282 187.096 206.202 186.168C208.122 185.208 210.362 184.728 212.922 184.728C215.482 184.728 217.706 185.208 219.594 186.168C221.482 187.128 222.938 188.456 223.962 190.152C224.986 191.848 225.498 193.8 225.498 196.008V207.48C225.498 210.2 224.938 212.472 223.818 214.296C222.73 216.088 221.21 217.432 219.258 218.328C217.338 219.224 215.13 219.672 212.634 219.672ZM212.826 202.2C214.17 202.2 215.322 201.96 216.282 201.48C217.274 201 218.026 200.328 218.538 199.464C219.082 198.6 219.354 197.576 219.354 196.392V196.008C219.354 194.216 218.762 192.808 217.578 191.784C216.426 190.728 214.842 190.2 212.826 190.2C210.81 190.2 209.21 190.728 208.026 191.784C206.874 192.808 206.298 194.216 206.298 196.008V196.392C206.298 197.576 206.554 198.6 207.066 199.464C207.61 200.328 208.378 201 209.37 201.48C210.362 201.96 211.514 202.2 212.826 202.2Z" fill="#3136E5"/>
<path d="M301.892 219.672C299.396 219.672 297.22 219.256 295.364 218.424C293.54 217.592 292.116 216.392 291.092 214.824C290.1 213.256 289.604 211.384 289.604 209.208H295.844C295.844 210.552 296.308 211.72 297.236 212.712C298.196 213.704 299.748 214.2 301.892 214.2C304.068 214.2 305.732 213.64 306.884 212.52C308.036 211.368 308.612 209.816 308.612 207.864V204.408H307.748C307.204 205.048 306.372 205.656 305.252 206.232C304.164 206.808 302.532 207.096 300.356 207.096C298.436 207.096 296.644 206.68 294.98 205.848C293.316 205.016 291.972 203.816 290.948 202.248C289.924 200.648 289.412 198.728 289.412 196.488V195.912C289.412 193.672 289.94 191.72 290.996 190.056C292.052 188.392 293.54 187.096 295.46 186.168C297.38 185.208 299.62 184.728 302.18 184.728C304.74 184.728 306.964 185.208 308.852 186.168C310.74 187.128 312.196 188.456 313.22 190.152C314.244 191.848 314.756 193.8 314.756 196.008V207.48C314.756 210.2 314.196 212.472 313.076 214.296C311.988 216.088 310.468 217.432 308.516 218.328C306.596 219.224 304.388 219.672 301.892 219.672ZM302.084 202.2C303.428 202.2 304.58 201.96 305.54 201.48C306.532 201 307.284 200.328 307.796 199.464C308.34 198.6 308.612 197.576 308.612 196.392V196.008C308.612 194.216 308.02 192.808 306.836 191.784C305.684 190.728 304.1 190.2 302.084 190.2C300.068 190.2 298.468 190.728 297.284 191.784C296.132 192.808 295.556 194.216 295.556 196.008V196.392C295.556 197.576 295.812 198.6 296.324 199.464C296.868 200.328 297.636 201 298.628 201.48C299.62 201.96 300.772 202.2 302.084 202.2ZM333.064 219.672C330.568 219.672 328.392 219.256 326.536 218.424C324.712 217.592 323.288 216.392 322.264 214.824C321.272 213.256 320.776 211.384 320.776 209.208H327.016C327.016 210.552 327.48 211.72 328.408 212.712C329.368 213.704 330.92 214.2 333.064 214.2C335.24 214.2 336.904 213.64 338.056 212.52C339.208 211.368 339.784 209.816 339.784 207.864V204.408H338.92C338.376 205.048 337.544 205.656 336.424 206.232C335.336 206.808 333.704 207.096 331.528 207.096C329.608 207.096 327.816 206.68 326.152 205.848C324.488 205.016 323.144 203.816 322.12 202.248C321.096 200.648 320.584 198.728 320.584 196.488V195.912C320.584 193.672 321.112 191.72 322.168 190.056C323.224 188.392 324.712 187.096 326.632 186.168C328.552 185.208 330.792 184.728 333.352 184.728C335.912 184.728 338.136 185.208 340.024 186.168C341.912 187.128 343.368 188.456 344.392 190.152C345.416 191.848 345.928 193.8 345.928 196.008V207.48C345.928 210.2 345.368 212.472 344.248 214.296C343.16 216.088 341.64 217.432 339.688 218.328C337.768 219.224 335.56 219.672 333.064 219.672ZM333.256 202.2C334.6 202.2 335.752 201.96 336.712 201.48C337.704 201 338.456 200.328 338.968 199.464C339.512 198.6 339.784 197.576 339.784 196.392V196.008C339.784 194.216 339.192 192.808 338.008 191.784C336.856 190.728 335.272 190.2 333.256 190.2C331.24 190.2 329.64 190.728 328.456 191.784C327.304 192.808 326.728 194.216 326.728 196.008V196.392C326.728 197.576 326.984 198.6 327.496 199.464C328.04 200.328 328.808 201 329.8 201.48C330.792 201.96 331.944 202.2 333.256 202.2ZM364.236 219.672C361.74 219.672 359.564 219.256 357.708 218.424C355.884 217.592 354.46 216.392 353.436 214.824C352.444 213.256 351.948 211.384 351.948 209.208H358.188C358.188 210.552 358.652 211.72 359.58 212.712C360.54 213.704 362.092 214.2 364.236 214.2C366.412 214.2 368.076 213.64 369.228 212.52C370.38 211.368 370.956 209.816 370.956 207.864V204.408H370.092C369.548 205.048 368.716 205.656 367.596 206.232C366.508 206.808 364.876 207.096 362.7 207.096C360.78 207.096 358.988 206.68 357.324 205.848C355.66 205.016 354.316 203.816 353.292 202.248C352.268 200.648 351.756 198.728 351.756 196.488V195.912C351.756 193.672 352.284 191.72 353.34 190.056C354.396 188.392 355.884 187.096 357.804 186.168C359.724 185.208 361.964 184.728 364.524 184.728C367.084 184.728 369.308 185.208 371.196 186.168C373.084 187.128 374.54 188.456 375.564 190.152C376.588 191.848 377.1 193.8 377.1 196.008V207.48C377.1 210.2 376.54 212.472 375.42 214.296C374.332 216.088 372.812 217.432 370.86 218.328C368.94 219.224 366.732 219.672 364.236 219.672ZM364.428 202.2C365.772 202.2 366.924 201.96 367.884 201.48C368.876 201 369.628 200.328 370.14 199.464C370.684 198.6 370.956 197.576 370.956 196.392V196.008C370.956 194.216 370.364 192.808 369.18 191.784C368.028 190.728 366.444 190.2 364.428 190.2C362.412 190.2 360.812 190.728 359.628 191.784C358.476 192.808 357.9 194.216 357.9 196.008V196.392C357.9 197.576 358.156 198.6 358.668 199.464C359.212 200.328 359.98 201 360.972 201.48C361.964 201.96 363.116 202.2 364.428 202.2Z" fill="#3136E5"/>
<path d="M41.7707 343V340.81C41.7707 339.31 42.0307 338.11 42.5507 337.21C43.0907 336.31 43.8307 335.59 44.7707 335.05C45.7307 334.49 46.8707 334.01 48.1907 333.61L49.8407 333.1C50.7407 332.82 51.5307 332.48 52.2107 332.08C52.8907 331.66 53.4207 331.14 53.8007 330.52C54.1807 329.88 54.3707 329.1 54.3707 328.18V328.06C54.3707 326.74 53.9107 325.7 52.9907 324.94C52.0707 324.16 50.8907 323.77 49.4507 323.77C47.9307 323.77 46.6907 324.18 45.7307 325C44.7707 325.8 44.2907 327.02 44.2907 328.66V329.08H41.8907V328.69C41.8907 327.17 42.2207 325.88 42.8807 324.82C43.5407 323.76 44.4407 322.96 45.5807 322.42C46.7207 321.86 48.0107 321.58 49.4507 321.58C50.8907 321.58 52.1607 321.85 53.2607 322.39C54.3807 322.93 55.2507 323.68 55.8707 324.64C56.4907 325.6 56.8007 326.72 56.8007 328V328.27C56.8007 329.63 56.5307 330.76 55.9907 331.66C55.4507 332.54 54.7007 333.26 53.7407 333.82C52.8007 334.38 51.6907 334.86 50.4107 335.26L48.7907 335.77C47.7707 336.09 46.9207 336.43 46.2407 336.79C45.5807 337.13 45.0807 337.57 44.7407 338.11C44.4007 338.65 44.2307 339.38 44.2307 340.3V340.81H56.6207V343H41.7707ZM70.7879 343V338.71H59.8379V335.83L68.6579 322H73.2179V336.52H76.8179V338.71H73.2179V343H70.7879ZM62.2679 336.52H70.7879V323.47H70.3679L62.2679 336.16V336.52ZM88.4579 343.42C86.8379 343.42 85.4279 343.18 84.2279 342.7C83.0479 342.2 82.1279 341.51 81.4679 340.63C80.8279 339.73 80.5079 338.68 80.5079 337.48V337.15C80.5079 336.11 80.7279 335.25 81.1679 334.57C81.6079 333.89 82.1379 333.37 82.7579 333.01C83.3979 332.63 83.9879 332.39 84.5279 332.29V331.9C83.9879 331.74 83.4279 331.48 82.8479 331.12C82.2879 330.76 81.8179 330.27 81.4379 329.65C81.0779 329.03 80.8979 328.27 80.8979 327.37V327.04C80.8979 325.9 81.2179 324.93 81.8579 324.13C82.5179 323.31 83.4179 322.68 84.5579 322.24C85.6979 321.8 86.9979 321.58 88.4579 321.58C89.9379 321.58 91.2379 321.8 92.3579 322.24C93.4979 322.68 94.3879 323.31 95.0279 324.13C95.6879 324.93 96.0179 325.9 96.0179 327.04V327.37C96.0179 328.27 95.8379 329.03 95.4779 329.65C95.1179 330.27 94.6579 330.76 94.0979 331.12C93.5379 331.48 92.9779 331.74 92.4179 331.9V332.29C92.9779 332.39 93.5679 332.63 94.1879 333.01C94.8079 333.37 95.3279 333.89 95.7479 334.57C96.1879 335.25 96.4079 336.11 96.4079 337.15V337.48C96.4079 338.68 96.0879 339.73 95.4479 340.63C94.8079 341.51 93.8879 342.2 92.6879 342.7C91.5079 343.18 90.0979 343.42 88.4579 343.42ZM88.4579 341.23C90.1579 341.23 91.4979 340.9 92.4779 340.24C93.4779 339.58 93.9779 338.62 93.9779 337.36V337.12C93.9779 335.86 93.4879 334.9 92.5079 334.24C91.5279 333.58 90.1779 333.25 88.4579 333.25C86.7579 333.25 85.4179 333.58 84.4379 334.24C83.4579 334.9 82.9679 335.86 82.9679 337.12V337.36C82.9679 338.62 83.4579 339.58 84.4379 340.24C85.4379 340.9 86.7779 341.23 88.4579 341.23ZM88.4579 331.06C90.0579 331.06 91.3079 330.76 92.2079 330.16C93.1279 329.54 93.5879 328.67 93.5879 327.55V327.31C93.5879 326.17 93.1279 325.3 92.2079 324.7C91.2879 324.08 90.0379 323.77 88.4579 323.77C86.8779 323.77 85.6279 324.08 84.7079 324.7C83.7879 325.3 83.3279 326.17 83.3279 327.31V327.55C83.3279 328.67 83.7879 329.54 84.7079 330.16C85.6279 330.76 86.8779 331.06 88.4579 331.06Z" fill="#2B2B2B"/>
<path d="M183.503 343.42C182.023 343.42 180.693 343.14 179.513 342.58C178.353 342.02 177.433 341.21 176.753 340.15C176.093 339.09 175.763 337.81 175.763 336.31V335.74H178.193V336.28C178.193 337.82 178.683 339.03 179.663 339.91C180.643 340.79 181.923 341.23 183.503 341.23C185.103 341.23 186.343 340.82 187.223 340C188.123 339.16 188.573 338.11 188.573 336.85V336.61C188.573 335.69 188.353 334.95 187.913 334.39C187.473 333.81 186.873 333.39 186.113 333.13C185.373 332.85 184.553 332.71 183.653 332.71H180.233V329.68L188.243 324.55V324.19H176.273V322H190.823V325.39L182.993 330.43V330.79H184.493C185.673 330.79 186.753 331.01 187.733 331.45C188.733 331.87 189.523 332.51 190.103 333.37C190.703 334.21 191.003 335.27 191.003 336.55V336.88C191.003 338.2 190.693 339.35 190.073 340.33C189.453 341.31 188.583 342.07 187.463 342.61C186.343 343.15 185.023 343.42 183.503 343.42ZM198.579 343V342.25C198.579 341.55 198.639 340.96 198.759 340.48C198.879 340 199.109 339.43 199.449 338.77L207.459 324.52V324.19H194.979V322H210.009V324.88L201.639 339.88C201.399 340.3 201.229 340.68 201.129 341.02C201.049 341.36 201.009 341.79 201.009 342.31V343H198.579ZM221.518 343.42C220.078 343.42 218.788 343.14 217.648 342.58C216.528 342 215.638 341.18 214.978 340.12C214.338 339.06 214.018 337.8 214.018 336.34V329.02C214.018 327.44 214.328 326.1 214.948 325C215.568 323.9 216.438 323.06 217.558 322.48C218.698 321.88 220.048 321.58 221.608 321.58C223.148 321.58 224.458 321.86 225.538 322.42C226.638 322.96 227.468 323.71 228.028 324.67C228.608 325.61 228.898 326.7 228.898 327.94H226.438C226.438 326.7 226.038 325.7 225.238 324.94C224.438 324.16 223.228 323.77 221.608 323.77C219.968 323.77 218.698 324.22 217.798 325.12C216.898 326 216.448 327.22 216.448 328.78V331.69H216.868C217.228 331.09 217.828 330.54 218.668 330.04C219.508 329.52 220.678 329.26 222.178 329.26C223.438 329.26 224.588 329.54 225.628 330.1C226.668 330.66 227.498 331.45 228.118 332.47C228.738 333.49 229.048 334.7 229.048 336.1V336.46C229.048 337.88 228.718 339.11 228.058 340.15C227.418 341.19 226.528 342 225.388 342.58C224.248 343.14 222.958 343.42 221.518 343.42ZM221.518 341.23C223.038 341.23 224.268 340.8 225.208 339.94C226.148 339.08 226.618 337.91 226.618 336.43V336.19C226.618 335.19 226.398 334.33 225.958 333.61C225.538 332.89 224.948 332.33 224.188 331.93C223.428 331.51 222.538 331.3 221.518 331.3C220.518 331.3 219.638 331.51 218.878 331.93C218.118 332.33 217.518 332.89 217.078 333.61C216.658 334.33 216.448 335.19 216.448 336.19V336.43C216.448 337.91 216.918 339.08 217.858 339.94C218.798 340.8 220.018 341.23 221.518 341.23Z" fill="#2B2B2B"/>
<path d="M315.605 343.42C313.985 343.42 312.575 343.18 311.375 342.7C310.195 342.2 309.275 341.51 308.615 340.63C307.975 339.73 307.655 338.68 307.655 337.48V337.15C307.655 336.11 307.875 335.25 308.315 334.57C308.755 333.89 309.285 333.37 309.905 333.01C310.545 332.63 311.135 332.39 311.675 332.29V331.9C311.135 331.74 310.575 331.48 309.995 331.12C309.435 330.76 308.965 330.27 308.585 329.65C308.225 329.03 308.045 328.27 308.045 327.37V327.04C308.045 325.9 308.365 324.93 309.005 324.13C309.665 323.31 310.565 322.68 311.705 322.24C312.845 321.8 314.145 321.58 315.605 321.58C317.085 321.58 318.385 321.8 319.505 322.24C320.645 322.68 321.535 323.31 322.175 324.13C322.835 324.93 323.165 325.9 323.165 327.04V327.37C323.165 328.27 322.985 329.03 322.625 329.65C322.265 330.27 321.805 330.76 321.245 331.12C320.685 331.48 320.125 331.74 319.565 331.9V332.29C320.125 332.39 320.715 332.63 321.335 333.01C321.955 333.37 322.475 333.89 322.895 334.57C323.335 335.25 323.555 336.11 323.555 337.15V337.48C323.555 338.68 323.235 339.73 322.595 340.63C321.955 341.51 321.035 342.2 319.835 342.7C318.655 343.18 317.245 343.42 315.605 343.42ZM315.605 341.23C317.305 341.23 318.645 340.9 319.625 340.24C320.625 339.58 321.125 338.62 321.125 337.36V337.12C321.125 335.86 320.635 334.9 319.655 334.24C318.675 333.58 317.325 333.25 315.605 333.25C313.905 333.25 312.565 333.58 311.585 334.24C310.605 334.9 310.115 335.86 310.115 337.12V337.36C310.115 338.62 310.605 339.58 311.585 340.24C312.585 340.9 313.925 341.23 315.605 341.23ZM315.605 331.06C317.205 331.06 318.455 330.76 319.355 330.16C320.275 329.54 320.735 328.67 320.735 327.55V327.31C320.735 326.17 320.275 325.3 319.355 324.7C318.435 324.08 317.185 323.77 315.605 323.77C314.025 323.77 312.775 324.08 311.855 324.7C310.935 325.3 310.475 326.17 310.475 327.31V327.55C310.475 328.67 310.935 329.54 311.855 330.16C312.775 330.76 314.025 331.06 315.605 331.06ZM336.067 343.42C333.687 343.42 331.787 342.72 330.367 341.32C328.967 339.9 328.267 337.78 328.267 334.96V330.04C328.267 327.24 328.967 325.13 330.367 323.71C331.787 322.29 333.687 321.58 336.067 321.58C338.467 321.58 340.367 322.29 341.767 323.71C343.187 325.13 343.897 327.24 343.897 330.04V334.96C343.897 337.78 343.187 339.9 341.767 341.32C340.367 342.72 338.467 343.42 336.067 343.42ZM336.067 341.23C337.867 341.23 339.217 340.69 340.117 339.61C341.017 338.53 341.467 337.02 341.467 335.08V329.89C341.467 327.95 341.007 326.45 340.087 325.39C339.167 324.31 337.827 323.77 336.067 323.77C334.307 323.77 332.967 324.31 332.047 325.39C331.147 326.47 330.697 327.97 330.697 329.89V335.08C330.697 337.04 331.147 338.56 332.047 339.64C332.947 340.7 334.287 341.23 336.067 341.23ZM354.896 343V323.62H354.446L350.366 331.09H347.726L352.736 322H357.326V343H354.896Z" fill="#2B2B2B"/>
<path d="M162.081 213.42C160.541 213.42 159.211 213.13 158.091 212.55C156.971 211.95 156.101 211.13 155.481 210.09C154.861 209.03 154.551 207.81 154.551 206.43V206.07H156.981V206.34C156.981 207.92 157.441 209.13 158.361 209.97C159.281 210.81 160.501 211.23 162.021 211.23C163.621 211.23 164.871 210.78 165.771 209.88C166.671 208.98 167.121 207.75 167.121 206.19V205.92C167.121 204.42 166.681 203.23 165.801 202.35C164.941 201.45 163.821 201 162.441 201C161.641 201 160.981 201.13 160.461 201.39C159.941 201.63 159.531 201.94 159.231 202.32C158.931 202.68 158.681 203.03 158.481 203.37H155.181V192H168.981V194.19H157.611V201.45H158.031C158.251 201.05 158.551 200.66 158.931 200.28C159.331 199.9 159.861 199.58 160.521 199.32C161.181 199.06 162.001 198.93 162.981 198.93C164.201 198.93 165.301 199.21 166.281 199.77C167.281 200.33 168.071 201.13 168.651 202.17C169.251 203.21 169.551 204.45 169.551 205.89V206.22C169.551 207.64 169.251 208.89 168.651 209.97C168.051 211.05 167.191 211.9 166.071 212.52C164.951 213.12 163.621 213.42 162.081 213.42Z" fill="#2B2B2B"/>
</svg>
