<svg width="673" height="406" viewBox="0 0 673 406" fill="none" xmlns="http://www.w3.org/2000/svg">
<path d="M9.39 30.42C7.87 30.42 6.51 30.15 5.31 29.61C4.11 29.07 3.16 28.26 2.46 27.18C1.78 26.08 1.44 24.71 1.44 23.07V22.44H3.93V23.07C3.93 24.81 4.44 26.11 5.46 26.97C6.48 27.81 7.79 28.23 9.39 28.23C11.03 28.23 12.28 27.86 13.14 27.12C14 26.38 14.43 25.45 14.43 24.33C14.43 23.55 14.23 22.93 13.83 22.47C13.45 22.01 12.91 21.64 12.21 21.36C11.51 21.06 10.69 20.8 9.75 20.58L8.19 20.19C6.97 19.87 5.89 19.48 4.95 19.02C4.01 18.56 3.27 17.96 2.73 17.22C2.21 16.46 1.95 15.49 1.95 14.31C1.95 13.13 2.24 12.11 2.82 11.25C3.42 10.39 4.25 9.73 5.31 9.27C6.39 8.81 7.63 8.58 9.03 8.58C10.45 8.58 11.72 8.83 12.84 9.33C13.98 9.81 14.87 10.53 15.51 11.49C16.17 12.43 16.5 13.62 16.5 15.06V16.32H14.01V15.06C14.01 14.04 13.79 13.22 13.35 12.6C12.93 11.98 12.34 11.52 11.58 11.22C10.84 10.92 9.99 10.77 9.03 10.77C7.65 10.77 6.54 11.08 5.7 11.7C4.86 12.3 4.44 13.16 4.44 14.28C4.44 15.02 4.62 15.62 4.98 16.08C5.34 16.54 5.85 16.92 6.51 17.22C7.17 17.5 7.96 17.75 8.88 17.97L10.44 18.36C11.66 18.62 12.75 18.98 13.71 19.44C14.69 19.88 15.47 20.49 16.05 21.27C16.63 22.03 16.92 23.03 16.92 24.27C16.92 25.51 16.61 26.59 15.99 27.51C15.37 28.43 14.49 29.15 13.35 29.67C12.23 30.17 10.91 30.42 9.39 30.42ZM22.2984 30V9H35.2284V11.28H24.8184V18.3H34.3884V20.58H24.8184V27.72H35.3784V30H22.2984ZM40.7027 30V9H49.1927C50.4927 9 51.6327 9.23 52.6127 9.69C53.6127 10.13 54.3927 10.77 54.9527 11.61C55.5127 12.43 55.7927 13.42 55.7927 14.58V14.91C55.7927 16.29 55.4627 17.38 54.8027 18.18C54.1427 18.98 53.3627 19.52 52.4627 19.8V20.22C53.1827 20.24 53.7727 20.48 54.2327 20.94C54.7127 21.38 54.9527 22.05 54.9527 22.95V30H52.4627V23.25C52.4627 22.65 52.2927 22.19 51.9527 21.87C51.6327 21.55 51.1427 21.39 50.4827 21.39H43.2227V30H40.7027ZM43.2227 19.11H48.9527C50.3327 19.11 51.3927 18.78 52.1327 18.12C52.8927 17.44 53.2727 16.5 53.2727 15.3V15.09C53.2727 13.89 52.9027 12.96 52.1627 12.3C51.4227 11.62 50.3527 11.28 48.9527 11.28H43.2227V19.11ZM61.1285 30V9H63.6485V30H61.1285ZM68.3027 30L74.7827 9H79.2227L85.7027 30H83.0927L81.4727 24.69H72.5327L70.9127 30H68.3027ZM73.1627 22.41H80.8127L77.2127 10.53H76.7927L73.1627 22.41ZM90.3492 30V9H92.8692V27.72H103.489V30H90.3492ZM123.601 30.42C122.081 30.42 120.721 30.15 119.521 29.61C118.321 29.07 117.371 28.26 116.671 27.18C115.991 26.08 115.651 24.71 115.651 23.07V22.44H118.141V23.07C118.141 24.81 118.651 26.11 119.671 26.97C120.691 27.81 122.001 28.23 123.601 28.23C125.241 28.23 126.491 27.86 127.351 27.12C128.211 26.38 128.641 25.45 128.641 24.33C128.641 23.55 128.441 22.93 128.041 22.47C127.661 22.01 127.121 21.64 126.421 21.36C125.721 21.06 124.901 20.8 123.961 20.58L122.401 20.19C121.181 19.87 120.101 19.48 119.161 19.02C118.221 18.56 117.481 17.96 116.941 17.22C116.421 16.46 116.161 15.49 116.161 14.31C116.161 13.13 116.451 12.11 117.031 11.25C117.631 10.39 118.461 9.73 119.521 9.27C120.601 8.81 121.841 8.58 123.241 8.58C124.661 8.58 125.931 8.83 127.051 9.33C128.191 9.81 129.081 10.53 129.721 11.49C130.381 12.43 130.711 13.62 130.711 15.06V16.32H128.221V15.06C128.221 14.04 128.001 13.22 127.561 12.6C127.141 11.98 126.551 11.52 125.791 11.22C125.051 10.92 124.201 10.77 123.241 10.77C121.861 10.77 120.751 11.08 119.911 11.7C119.071 12.3 118.651 13.16 118.651 14.28C118.651 15.02 118.831 15.62 119.191 16.08C119.551 16.54 120.061 16.92 120.721 17.22C121.381 17.5 122.171 17.75 123.091 17.97L124.651 18.36C125.871 18.62 126.961 18.98 127.921 19.44C128.901 19.88 129.681 20.49 130.261 21.27C130.841 22.03 131.131 23.03 131.131 24.27C131.131 25.51 130.821 26.59 130.201 27.51C129.581 28.43 128.701 29.15 127.561 29.67C126.441 30.17 125.121 30.42 123.601 30.42ZM140.761 30V11.28H134.011V9H150.031V11.28H143.281V30H140.761ZM154.738 30V9H163.228C164.528 9 165.668 9.23 166.648 9.69C167.648 10.13 168.428 10.77 168.988 11.61C169.548 12.43 169.828 13.42 169.828 14.58V14.91C169.828 16.29 169.498 17.38 168.838 18.18C168.178 18.98 167.398 19.52 166.498 19.8V20.22C167.218 20.24 167.808 20.48 168.268 20.94C168.748 21.38 168.988 22.05 168.988 22.95V30H166.498V23.25C166.498 22.65 166.328 22.19 165.988 21.87C165.668 21.55 165.178 21.39 164.518 21.39H157.258V30H154.738ZM157.258 19.11H162.988C164.368 19.11 165.428 18.78 166.168 18.12C166.928 17.44 167.308 16.5 167.308 15.3V15.09C167.308 13.89 166.938 12.96 166.198 12.3C165.458 11.62 164.388 11.28 162.988 11.28H157.258V19.11ZM175.164 30V9H177.684V30H175.164ZM183.988 30V9H192.028C193.288 9 194.408 9.25 195.388 9.75C196.388 10.23 197.178 10.92 197.758 11.82C198.338 12.72 198.628 13.81 198.628 15.09V15.48C198.628 16.74 198.328 17.83 197.728 18.75C197.148 19.65 196.358 20.34 195.358 20.82C194.358 21.3 193.248 21.54 192.028 21.54H186.508V30H183.988ZM186.508 19.26H191.758C193.098 19.26 194.158 18.93 194.938 18.27C195.718 17.59 196.108 16.64 196.108 15.42V15.12C196.108 13.9 195.718 12.96 194.938 12.3C194.178 11.62 193.118 11.28 191.758 11.28H186.508V19.26ZM212.711 30V9H217.601L224.921 28.41H225.311V9H227.801V30H222.911L215.621 10.56H215.201V30H212.711ZM241.722 30.42C240.162 30.42 238.802 30.14 237.642 29.58C236.482 29.02 235.582 28.19 234.942 27.09C234.302 25.97 233.982 24.6 233.982 22.98V9H236.472V23.01C236.472 24.73 236.932 26.02 237.852 26.88C238.772 27.74 240.062 28.17 241.722 28.17C243.382 28.17 244.672 27.74 245.592 26.88C246.512 26.02 246.972 24.73 246.972 23.01V9H249.492V22.98C249.492 24.6 249.172 25.97 248.532 27.09C247.892 28.19 246.982 29.02 245.802 29.58C244.642 30.14 243.282 30.42 241.722 30.42ZM255.613 30V9H260.413L265.993 28.41H266.383L271.963 9H276.763V30H274.333V10.65H273.913L268.363 30H264.013L258.463 10.65H258.043V30H255.613ZM282.08 30V27.75H285.02V11.25H282.08V9H292.61C293.83 9 294.91 9.22 295.85 9.66C296.81 10.1 297.55 10.72 298.07 11.52C298.61 12.3 298.88 13.22 298.88 14.28V14.52C298.88 15.5 298.69 16.31 298.31 16.95C297.93 17.57 297.48 18.06 296.96 18.42C296.44 18.76 295.93 19.01 295.43 19.17V19.59C295.93 19.71 296.45 19.95 296.99 20.31C297.53 20.65 297.98 21.14 298.34 21.78C298.72 22.42 298.91 23.23 298.91 24.21V24.51C298.91 25.65 298.63 26.64 298.07 27.48C297.53 28.3 296.78 28.93 295.82 29.37C294.88 29.79 293.8 30 292.58 30H282.08ZM287.54 27.72H292.31C293.63 27.72 294.64 27.41 295.34 26.79C296.04 26.17 296.39 25.33 296.39 24.27V24C296.39 22.94 296.04 22.1 295.34 21.48C294.64 20.86 293.63 20.55 292.31 20.55H287.54V27.72ZM287.54 18.27H292.4C293.6 18.27 294.56 17.97 295.28 17.37C296 16.75 296.36 15.94 296.36 14.94V14.64C296.36 13.62 296 12.81 295.28 12.21C294.58 11.59 293.62 11.28 292.4 11.28H287.54V18.27ZM304.404 30V9H317.334V11.28H306.924V18.3H316.494V20.58H306.924V27.72H317.484V30H304.404ZM322.808 30V9H331.298C332.598 9 333.738 9.23 334.718 9.69C335.718 10.13 336.498 10.77 337.058 11.61C337.618 12.43 337.898 13.42 337.898 14.58V14.91C337.898 16.29 337.568 17.38 336.908 18.18C336.248 18.98 335.468 19.52 334.568 19.8V20.22C335.288 20.24 335.878 20.48 336.338 20.94C336.818 21.38 337.058 22.05 337.058 22.95V30H334.568V23.25C334.568 22.65 334.398 22.19 334.058 21.87C333.738 21.55 333.248 21.39 332.588 21.39H325.328V30H322.808ZM325.328 19.11H331.058C332.438 19.11 333.498 18.78 334.238 18.12C334.998 17.44 335.378 16.5 335.378 15.3V15.09C335.378 13.89 335.008 12.96 334.268 12.3C333.528 11.62 332.458 11.28 331.058 11.28H325.328V19.11ZM350.224 30.42C348.704 30.42 347.344 30.15 346.144 29.61C344.944 29.07 343.994 28.26 343.294 27.18C342.614 26.08 342.274 24.71 342.274 23.07V22.44H344.764V23.07C344.764 24.81 345.274 26.11 346.294 26.97C347.314 27.81 348.624 28.23 350.224 28.23C351.864 28.23 353.114 27.86 353.974 27.12C354.834 26.38 355.264 25.45 355.264 24.33C355.264 23.55 355.064 22.93 354.664 22.47C354.284 22.01 353.744 21.64 353.044 21.36C352.344 21.06 351.524 20.8 350.584 20.58L349.024 20.19C347.804 19.87 346.724 19.48 345.784 19.02C344.844 18.56 344.104 17.96 343.564 17.22C343.044 16.46 342.784 15.49 342.784 14.31C342.784 13.13 343.074 12.11 343.654 11.25C344.254 10.39 345.084 9.73 346.144 9.27C347.224 8.81 348.464 8.58 349.864 8.58C351.284 8.58 352.554 8.83 353.674 9.33C354.814 9.81 355.704 10.53 356.344 11.49C357.004 12.43 357.334 13.62 357.334 15.06V16.32H354.844V15.06C354.844 14.04 354.624 13.22 354.184 12.6C353.764 11.98 353.174 11.52 352.414 11.22C351.674 10.92 350.824 10.77 349.864 10.77C348.484 10.77 347.374 11.08 346.534 11.7C345.694 12.3 345.274 13.16 345.274 14.28C345.274 15.02 345.454 15.62 345.814 16.08C346.174 16.54 346.684 16.92 347.344 17.22C348.004 17.5 348.794 17.75 349.714 17.97L351.274 18.36C352.494 18.62 353.584 18.98 354.544 19.44C355.524 19.88 356.304 20.49 356.884 21.27C357.464 22.03 357.754 23.03 357.754 24.27C357.754 25.51 357.444 26.59 356.824 27.51C356.204 28.43 355.324 29.15 354.184 29.67C353.064 30.17 351.744 30.42 350.224 30.42ZM374.262 30L370.842 9H373.362L376.332 28.38H376.752L380.622 9H385.122L388.962 28.38H389.382L392.352 9H394.872L391.452 30H386.952L383.082 10.5H382.662L378.792 30H374.262ZM399.882 30V9H402.402V30H399.882ZM408.707 30V9H411.227V27.72H421.847V30H408.707ZM426.584 30V9H429.104V27.72H439.724V30H426.584ZM452.875 30V9H461.365C462.665 9 463.805 9.23 464.785 9.69C465.785 10.13 466.565 10.77 467.125 11.61C467.685 12.43 467.965 13.42 467.965 14.58V14.91C467.965 16.29 467.635 17.38 466.975 18.18C466.315 18.98 465.535 19.52 464.635 19.8V20.22C465.355 20.24 465.945 20.48 466.405 20.94C466.885 21.38 467.125 22.05 467.125 22.95V30H464.635V23.25C464.635 22.65 464.465 22.19 464.125 21.87C463.805 21.55 463.315 21.39 462.655 21.39H455.395V30H452.875ZM455.395 19.11H461.125C462.505 19.11 463.565 18.78 464.305 18.12C465.065 17.44 465.445 16.5 465.445 15.3V15.09C465.445 13.89 465.075 12.96 464.335 12.3C463.595 11.62 462.525 11.28 461.125 11.28H455.395V19.11ZM471.65 30L478.13 9H482.57L489.05 30H486.44L484.82 24.69H475.88L474.26 30H471.65ZM476.51 22.41H484.16L480.56 10.53H480.14L476.51 22.41ZM493.697 30V9H498.587L505.907 28.41H506.297V9H508.787V30H503.897L496.607 10.56H496.187V30H493.697ZM522.439 30.42C520.879 30.42 519.499 30.1 518.299 29.46C517.119 28.8 516.189 27.84 515.509 26.58C514.849 25.32 514.519 23.76 514.519 21.9V17.1C514.519 14.32 515.259 12.21 516.739 10.77C518.219 9.31 520.209 8.58 522.709 8.58C525.189 8.58 527.079 9.26 528.379 10.62C529.679 11.98 530.329 13.8 530.329 16.08V16.23H527.839V16.02C527.839 15.02 527.659 14.13 527.299 13.35C526.939 12.57 526.379 11.96 525.619 11.52C524.859 11.06 523.889 10.83 522.709 10.83C520.929 10.83 519.539 11.38 518.539 12.48C517.539 13.56 517.039 15.08 517.039 17.04V21.96C517.039 23.92 517.539 25.45 518.539 26.55C519.539 27.63 520.939 28.17 522.739 28.17C524.499 28.17 525.789 27.67 526.609 26.67C527.449 25.67 527.869 24.34 527.869 22.68V22.17H521.509V20.01H530.329V30H528.049V27.72H527.629C527.409 28.16 527.099 28.59 526.699 29.01C526.299 29.43 525.759 29.77 525.079 30.03C524.399 30.29 523.519 30.42 522.439 30.42ZM536.423 30V9H549.353V11.28H538.943V18.3H548.513V20.58H538.943V27.72H549.503V30H536.423ZM564.033 30V9H576.723V11.28H566.553V18.33H575.913V20.61H566.553V30H564.033ZM581.734 30V9H590.224C591.524 9 592.664 9.23 593.644 9.69C594.644 10.13 595.424 10.77 595.984 11.61C596.544 12.43 596.824 13.42 596.824 14.58V14.91C596.824 16.29 596.494 17.38 595.834 18.18C595.174 18.98 594.394 19.52 593.494 19.8V20.22C594.214 20.24 594.804 20.48 595.264 20.94C595.744 21.38 595.984 22.05 595.984 22.95V30H593.494V23.25C593.494 22.65 593.324 22.19 592.984 21.87C592.664 21.55 592.174 21.39 591.514 21.39H584.254V30H581.734ZM584.254 19.11H589.984C591.364 19.11 592.424 18.78 593.164 18.12C593.924 17.44 594.304 16.5 594.304 15.3V15.09C594.304 13.89 593.934 12.96 593.194 12.3C592.454 11.62 591.384 11.28 589.984 11.28H584.254V19.11ZM609.78 30.42C607.28 30.42 605.28 29.7 603.78 28.26C602.3 26.8 601.56 24.68 601.56 21.9V17.1C601.56 14.32 602.3 12.21 603.78 10.77C605.28 9.31 607.28 8.58 609.78 8.58C612.3 8.58 614.3 9.31 615.78 10.77C617.28 12.21 618.03 14.32 618.03 17.1V21.9C618.03 24.68 617.28 26.8 615.78 28.26C614.3 29.7 612.3 30.42 609.78 30.42ZM609.78 28.17C611.6 28.17 613.01 27.63 614.01 26.55C615.01 25.45 615.51 23.93 615.51 21.99V17.01C615.51 15.07 615.01 13.56 614.01 12.48C613.01 11.38 611.6 10.83 609.78 10.83C607.98 10.83 606.58 11.38 605.58 12.48C604.58 13.56 604.08 15.07 604.08 17.01V21.99C604.08 23.93 604.58 25.45 605.58 26.55C606.58 27.63 607.98 28.17 609.78 28.17ZM623.728 30V9H628.528L634.108 28.41H634.498L640.078 9H644.878V30H642.448V10.65H642.028L636.478 30H632.128L626.578 10.65H626.158V30H623.728Z" fill="black"/>
<path d="M4.54652 125V87.4545H27.0591V91.4877H9.09304V104.174H25.3725V108.207H9.09304V125H4.54652ZM46.4323 125.513C43.6701 125.513 41.3174 124.762 39.3741 123.258C37.4309 121.743 35.9459 119.549 34.9193 116.677C33.8927 113.793 33.3793 110.309 33.3793 106.227C33.3793 102.17 33.8927 98.7047 34.9193 95.8326C35.9581 92.9483 37.4492 90.7483 39.3925 89.2328C41.348 87.7051 43.6946 86.9412 46.4323 86.9412C49.1699 86.9412 51.5104 87.7051 53.4537 89.2328C55.4092 90.7483 56.9002 92.9483 57.9269 95.8326C58.9657 98.7047 59.4852 102.17 59.4852 106.227C59.4852 110.309 58.9718 113.793 57.9452 116.677C56.9186 119.549 55.4336 121.743 53.4904 123.258C51.5471 124.762 49.1944 125.513 46.4323 125.513ZM46.4323 121.48C49.1699 121.48 51.2965 120.16 52.812 117.52C54.3276 114.88 55.0853 111.116 55.0853 106.227C55.0853 102.976 54.737 100.208 54.0403 97.9225C53.3559 95.6371 52.3659 93.8954 51.0704 92.6977C49.7871 91.5 48.2411 90.9011 46.4323 90.9011C43.719 90.9011 41.5985 92.2394 40.0708 94.916C38.5431 97.5803 37.7792 101.351 37.7792 106.227C37.7792 109.478 38.1214 112.24 38.8058 114.514C39.4903 116.787 40.4741 118.516 41.7574 119.702C43.0529 120.887 44.6112 121.48 46.4323 121.48ZM93.2174 125.513C90.4553 125.513 88.1026 124.762 86.1593 123.258C84.216 121.743 82.7311 119.549 81.7044 116.677C80.6778 113.793 80.1645 110.309 80.1645 106.227C80.1645 102.17 80.6778 98.7047 81.7044 95.8326C82.7433 92.9483 84.2344 90.7483 86.1776 89.2328C88.1331 87.7051 90.4797 86.9412 93.2174 86.9412C95.9551 86.9412 98.2956 87.7051 100.239 89.2328C102.194 90.7483 103.685 92.9483 104.712 95.8326C105.751 98.7047 106.27 102.17 106.27 106.227C106.27 110.309 105.757 113.793 104.73 116.677C103.704 119.549 102.219 121.743 100.276 123.258C98.3322 124.762 95.9795 125.513 93.2174 125.513ZM93.2174 121.48C95.9551 121.48 98.0817 120.16 99.5972 117.52C101.113 114.88 101.87 111.116 101.87 106.227C101.87 102.976 101.522 100.208 100.825 97.9225C100.141 95.6371 99.1511 93.8954 97.8556 92.6977C96.5723 91.5 95.0262 90.9011 93.2174 90.9011C90.5042 90.9011 88.3837 92.2394 86.8559 94.916C85.3282 97.5803 84.5644 101.351 84.5644 106.227C84.5644 109.478 84.9066 112.24 85.591 114.514C86.2754 116.787 87.2593 118.516 88.5426 119.702C89.8381 120.887 91.3964 121.48 93.2174 121.48ZM125.483 125.513C122.721 125.513 120.368 124.762 118.425 123.258C116.482 121.743 114.997 119.549 113.97 116.677C112.943 113.793 112.43 110.309 112.43 106.227C112.43 102.17 112.943 98.7047 113.97 95.8326C115.009 92.9483 116.5 90.7483 118.443 89.2328C120.399 87.7051 122.745 86.9412 125.483 86.9412C128.221 86.9412 130.561 87.7051 132.504 89.2328C134.46 90.7483 135.951 92.9483 136.978 95.8326C138.017 98.7047 138.536 102.17 138.536 106.227C138.536 110.309 138.023 113.793 136.996 116.677C135.969 119.549 134.484 121.743 132.541 123.258C130.598 124.762 128.245 125.513 125.483 125.513ZM125.483 121.48C128.221 121.48 130.347 120.16 131.863 117.52C133.378 114.88 134.136 111.116 134.136 106.227C134.136 102.976 133.788 100.208 133.091 97.9225C132.407 95.6371 131.417 93.8954 130.121 92.6977C128.838 91.5 127.292 90.9011 125.483 90.9011C122.77 90.9011 120.649 92.2394 119.122 94.916C117.594 97.5803 116.83 101.351 116.83 106.227C116.83 109.478 117.172 112.24 117.857 114.514C118.541 116.787 119.525 118.516 120.808 119.702C122.104 120.887 123.662 121.48 125.483 121.48ZM157.749 125.513C154.987 125.513 152.634 124.762 150.691 123.258C148.747 121.743 147.262 119.549 146.236 116.677C145.209 113.793 144.696 110.309 144.696 106.227C144.696 102.17 145.209 98.7047 146.236 95.8326C147.275 92.9483 148.766 90.7483 150.709 89.2328C152.664 87.7051 155.011 86.9412 157.749 86.9412C160.486 86.9412 162.827 87.7051 164.77 89.2328C166.726 90.7483 168.217 92.9483 169.243 95.8326C170.282 98.7047 170.802 102.17 170.802 106.227C170.802 110.309 170.288 113.793 169.262 116.677C168.235 119.549 166.75 121.743 164.807 123.258C162.863 124.762 160.511 125.513 157.749 125.513ZM157.749 121.48C160.486 121.48 162.613 120.16 164.128 117.52C165.644 114.88 166.402 111.116 166.402 106.227C166.402 102.976 166.053 100.208 165.357 97.9225C164.672 95.6371 163.682 93.8954 162.387 92.6977C161.104 91.5 159.557 90.9011 157.749 90.9011C155.035 90.9011 152.915 92.2394 151.387 94.916C149.859 97.5803 149.096 101.351 149.096 106.227C149.096 109.478 149.438 112.24 150.122 114.514C150.807 116.787 151.791 118.516 153.074 119.702C154.369 120.887 155.928 121.48 157.749 121.48Z" fill="black"/>
<mask id="path-3-inside-1_237_2112" fill="white">
<path d="M0 174H672.02V175H0V174Z"/>
</mask>
<path d="M0 175H672.02V173H0V175Z" fill="#C2C2C2" mask="url(#path-3-inside-1_237_2112)"/>
<path d="M4.54652 261V223.455H27.0591V227.488H9.09304V240.174H25.3725V244.207H9.09304V261H4.54652ZM46.1389 222.941C47.6789 222.953 49.2188 223.247 50.7588 223.821C52.2987 224.396 53.7042 225.349 54.9753 226.681C56.2464 228.001 57.2669 229.804 58.0369 232.089C58.8069 234.375 59.1918 237.241 59.1918 240.687C59.1918 244.024 58.8741 246.988 58.2385 249.579C57.6152 252.158 56.7108 254.333 55.5253 256.105C54.352 257.877 52.922 259.222 51.2354 260.138C49.561 261.055 47.6667 261.513 45.5523 261.513C43.4501 261.513 41.5741 261.098 39.9241 260.267C38.2864 259.423 36.942 258.256 35.8909 256.765C34.8521 255.262 34.186 253.52 33.8927 251.54H38.3658C38.7692 253.264 39.5697 254.687 40.7674 255.812C41.9774 256.924 43.5723 257.48 45.5523 257.48C48.4489 257.48 50.7343 256.215 52.4087 253.685C54.0953 251.155 54.9386 247.58 54.9386 242.961H54.6453C53.9609 243.987 53.1481 244.873 52.2071 245.619C51.266 246.364 50.221 246.939 49.0722 247.342C47.9233 247.745 46.7011 247.947 45.4056 247.947C43.2546 247.947 41.2808 247.415 39.4841 246.352C37.6998 245.277 36.2698 243.804 35.1943 241.934C34.131 240.052 33.5993 237.901 33.5993 235.481C33.5993 233.183 34.1126 231.081 35.1393 229.174C36.1781 227.256 37.6325 225.728 39.5025 224.591C41.3846 223.455 43.5968 222.905 46.1389 222.941ZM46.1389 226.974C44.599 226.974 43.2118 227.359 41.9774 228.129C40.7552 228.887 39.7836 229.914 39.0625 231.209C38.3536 232.493 37.9992 233.916 37.9992 235.481C37.9992 237.045 38.3414 238.469 39.0258 239.752C39.7225 241.023 40.6697 242.038 41.8674 242.796C43.0774 243.541 44.4523 243.914 45.9923 243.914C47.1533 243.914 48.235 243.688 49.2372 243.236C50.2394 242.771 51.1132 242.142 51.8587 241.347C52.6165 240.541 53.2093 239.63 53.637 238.616C54.0648 237.589 54.2787 236.52 54.2787 235.407C54.2787 233.941 53.9242 232.566 53.2154 231.283C52.5187 229.999 51.5532 228.96 50.3188 228.166C49.0966 227.372 47.7033 226.974 46.1389 226.974ZM92.8737 222.941C94.4136 222.953 95.9536 223.247 97.4935 223.821C99.0335 224.396 100.439 225.349 101.71 226.681C102.981 228.001 104.002 229.804 104.772 232.089C105.542 234.375 105.927 237.241 105.927 240.687C105.927 244.024 105.609 246.988 104.973 249.579C104.35 252.158 103.446 254.333 102.26 256.105C101.087 257.877 99.6568 259.222 97.9702 260.138C96.2958 261.055 94.4014 261.513 92.287 261.513C90.1849 261.513 88.3088 261.098 86.6589 260.267C85.0211 259.423 83.6767 258.256 82.6257 256.765C81.5868 255.262 80.9207 253.52 80.6274 251.54H85.1006C85.5039 253.264 86.3044 254.687 87.5022 255.812C88.7121 256.924 90.3071 257.48 92.287 257.48C95.1836 257.48 97.4691 256.215 99.1435 253.685C100.83 251.155 101.673 247.58 101.673 242.961H101.38C100.696 243.987 99.8829 244.873 98.9418 245.619C98.0007 246.364 96.9558 246.939 95.8069 247.342C94.6581 247.745 93.4359 247.947 92.1404 247.947C89.9893 247.947 88.0155 247.415 86.2189 246.352C84.4345 245.277 83.0045 243.804 81.929 241.934C80.8657 240.052 80.3341 237.901 80.3341 235.481C80.3341 233.183 80.8474 231.081 81.874 229.174C82.9129 227.256 84.3673 225.728 86.2372 224.591C88.1194 223.455 90.3315 222.905 92.8737 222.941ZM92.8737 226.974C91.3337 226.974 89.9465 227.359 88.7121 228.129C87.49 228.887 86.5183 229.914 85.7972 231.209C85.0884 232.493 84.7339 233.916 84.7339 235.481C84.7339 237.045 85.0761 238.469 85.7606 239.752C86.4572 241.023 87.4044 242.038 88.6021 242.796C89.8121 243.541 91.1871 243.914 92.727 243.914C93.8881 243.914 94.9697 243.688 95.9719 243.236C96.9741 242.771 97.848 242.142 98.5935 241.347C99.3512 240.541 99.944 239.63 100.372 238.616C100.8 237.589 101.013 236.52 101.013 235.407C101.013 233.941 100.659 232.566 99.9501 231.283C99.2535 229.999 98.2879 228.96 97.0535 228.166C95.8314 227.372 94.4381 226.974 92.8737 226.974ZM125.089 222.941C126.629 222.953 128.169 223.247 129.709 223.821C131.249 224.396 132.654 225.349 133.925 226.681C135.196 228.001 136.217 229.804 136.987 232.089C137.757 234.375 138.142 237.241 138.142 240.687C138.142 244.024 137.824 246.988 137.188 249.579C136.565 252.158 135.661 254.333 134.475 256.105C133.302 257.877 131.872 259.222 130.185 260.138C128.511 261.055 126.617 261.513 124.502 261.513C122.4 261.513 120.524 261.098 118.874 260.267C117.236 259.423 115.892 258.256 114.841 256.765C113.802 255.262 113.136 253.52 112.843 251.54H117.316C117.719 253.264 118.52 254.687 119.717 255.812C120.927 256.924 122.522 257.48 124.502 257.48C127.399 257.48 129.684 256.215 131.359 253.685C133.045 251.155 133.889 247.58 133.889 242.961H133.595C132.911 243.987 132.098 244.873 131.157 245.619C130.216 246.364 129.171 246.939 128.022 247.342C126.873 247.745 125.651 247.947 124.356 247.947C122.205 247.947 120.231 247.415 118.434 246.352C116.65 245.277 115.22 243.804 114.144 241.934C113.081 240.052 112.549 237.901 112.549 235.481C112.549 233.183 113.063 231.081 114.089 229.174C115.128 227.256 116.582 225.728 118.452 224.591C120.335 223.455 122.547 222.905 125.089 222.941ZM125.089 226.974C123.549 226.974 122.162 227.359 120.927 228.129C119.705 228.887 118.734 229.914 118.012 231.209C117.304 232.493 116.949 233.916 116.949 235.481C116.949 237.045 117.291 238.469 117.976 239.752C118.672 241.023 119.62 242.038 120.817 242.796C122.027 243.541 123.402 243.914 124.942 243.914C126.103 243.914 127.185 243.688 128.187 243.236C129.189 242.771 130.063 242.142 130.809 241.347C131.566 240.541 132.159 239.63 132.587 238.616C133.015 237.589 133.229 236.52 133.229 235.407C133.229 233.941 132.874 232.566 132.165 231.283C131.469 229.999 130.503 228.96 129.269 228.166C128.047 227.372 126.653 226.974 125.089 226.974ZM157.304 222.941C158.844 222.953 160.384 223.247 161.924 223.821C163.464 224.396 164.869 225.349 166.14 226.681C167.412 228.001 168.432 229.804 169.202 232.089C169.972 234.375 170.357 237.241 170.357 240.687C170.357 244.024 170.039 246.988 169.404 249.579C168.78 252.158 167.876 254.333 166.69 256.105C165.517 257.877 164.087 259.222 162.401 260.138C160.726 261.055 158.832 261.513 156.717 261.513C154.615 261.513 152.739 261.098 151.089 260.267C149.452 259.423 148.107 258.256 147.056 256.765C146.017 255.262 145.351 253.52 145.058 251.54H149.531C149.934 253.264 150.735 254.687 151.933 255.812C153.143 256.924 154.738 257.48 156.717 257.48C159.614 257.48 161.899 256.215 163.574 253.685C165.26 251.155 166.104 247.58 166.104 242.961H165.81C165.126 243.987 164.313 244.873 163.372 245.619C162.431 246.364 161.386 246.939 160.237 247.342C159.088 247.745 157.866 247.947 156.571 247.947C154.42 247.947 152.446 247.415 150.649 246.352C148.865 245.277 147.435 243.804 146.359 241.934C145.296 240.052 144.764 237.901 144.764 235.481C144.764 233.183 145.278 231.081 146.304 229.174C147.343 227.256 148.798 225.728 150.668 224.591C152.55 223.455 154.762 222.905 157.304 222.941ZM157.304 226.974C155.764 226.974 154.377 227.359 153.143 228.129C151.92 228.887 150.949 229.914 150.228 231.209C149.519 232.493 149.164 233.916 149.164 235.481C149.164 237.045 149.507 238.469 150.191 239.752C150.888 241.023 151.835 242.038 153.033 242.796C154.243 243.541 155.617 243.914 157.157 243.914C158.319 243.914 159.4 243.688 160.402 243.236C161.405 242.771 162.278 242.142 163.024 241.347C163.782 240.541 164.374 239.63 164.802 238.616C165.23 237.589 165.444 236.52 165.444 235.407C165.444 233.941 165.089 232.566 164.381 231.283C163.684 229.999 162.718 228.96 161.484 228.166C160.262 227.372 158.868 226.974 157.304 226.974Z" fill="black"/>
<path d="M0.965909 340.017V338.455H11.875V340.017H7.30114V353H5.53977V340.017H0.965909ZM16.0423 346.438V353H14.3661V338.455H16.0423V343.795H16.1843C16.44 343.232 16.8235 342.785 17.3349 342.453C17.851 342.117 18.5375 341.949 19.3945 341.949C20.1379 341.949 20.7889 342.098 21.3477 342.396C21.9064 342.69 22.3396 343.142 22.6474 343.753C22.9599 344.359 23.1161 345.131 23.1161 346.068V353H21.44V346.182C21.44 345.315 21.2151 344.645 20.7653 344.172C20.3202 343.694 19.7023 343.455 18.9116 343.455C18.3623 343.455 17.8699 343.571 17.4343 343.803C17.0034 344.035 16.6625 344.373 16.4116 344.818C16.1654 345.263 16.0423 345.803 16.0423 346.438ZM30.7564 353.227C29.7053 353.227 28.7985 352.995 28.0362 352.531C27.2786 352.062 26.6939 351.409 26.282 350.571C25.8748 349.728 25.6712 348.748 25.6712 347.631C25.6712 346.513 25.8748 345.528 26.282 344.676C26.6939 343.819 27.2668 343.152 28.0007 342.673C28.7393 342.19 29.6011 341.949 30.5859 341.949C31.1541 341.949 31.7152 342.044 32.2692 342.233C32.8232 342.422 33.3274 342.73 33.782 343.156C34.2365 343.578 34.5987 344.136 34.8686 344.832C35.1385 345.528 35.2734 346.385 35.2734 347.403V348.114H26.8643V346.665H33.5689C33.5689 346.049 33.4458 345.5 33.1996 345.017C32.9581 344.534 32.6125 344.153 32.1626 343.874C31.7176 343.594 31.192 343.455 30.5859 343.455C29.9183 343.455 29.3407 343.62 28.853 343.952C28.37 344.278 27.9983 344.705 27.7379 345.23C27.4775 345.756 27.3473 346.319 27.3473 346.92V347.886C27.3473 348.71 27.4893 349.409 27.7734 349.982C28.0623 350.55 28.4624 350.983 28.9737 351.281C29.4851 351.575 30.0793 351.722 30.7564 351.722C31.1967 351.722 31.5945 351.66 31.9496 351.537C32.3094 351.409 32.6196 351.22 32.88 350.969C33.1404 350.713 33.3416 350.396 33.4837 350.017L35.103 350.472C34.9325 351.021 34.6461 351.504 34.2436 351.92C33.8411 352.332 33.344 352.654 32.7521 352.886C32.1603 353.114 31.495 353.227 30.7564 353.227ZM43.6754 353V338.455H45.4368V351.438H52.1982V353H43.6754ZM54.6982 353V342.091H56.3743V353H54.6982ZM55.5504 340.273C55.2237 340.273 54.942 340.161 54.7053 339.939C54.4732 339.716 54.3572 339.449 54.3572 339.136C54.3572 338.824 54.4732 338.556 54.7053 338.334C54.942 338.111 55.2237 338 55.5504 338C55.8771 338 56.1565 338.111 56.3885 338.334C56.6252 338.556 56.7436 338.824 56.7436 339.136C56.7436 339.449 56.6252 339.716 56.3885 339.939C56.1565 340.161 55.8771 340.273 55.5504 340.273ZM59.4442 353V342.091H61.0636V343.795H61.2056C61.4329 343.213 61.7998 342.761 62.3065 342.439C62.8131 342.112 63.4215 341.949 64.1317 341.949C64.8514 341.949 65.4504 342.112 65.9286 342.439C66.4116 342.761 66.788 343.213 67.0579 343.795H67.1715C67.4509 343.232 67.8699 342.785 68.4286 342.453C68.9873 342.117 69.6573 341.949 70.4386 341.949C71.4139 341.949 72.2118 342.254 72.832 342.865C73.4523 343.471 73.7624 344.416 73.7624 345.699V353H72.0863V345.699C72.0863 344.894 71.8661 344.319 71.4258 343.973C70.9854 343.627 70.467 343.455 69.8704 343.455C69.1033 343.455 68.5091 343.687 68.0877 344.151C67.6663 344.61 67.4556 345.192 67.4556 345.898V353H65.7511V345.528C65.7511 344.908 65.5498 344.409 65.1474 344.03C64.7449 343.646 64.2264 343.455 63.592 343.455C63.1564 343.455 62.7492 343.571 62.3704 343.803C61.9963 344.035 61.6933 344.357 61.4613 344.768C61.234 345.176 61.1204 345.647 61.1204 346.182V353H59.4442ZM76.8271 353V342.091H78.5032V353H76.8271ZM77.6793 340.273C77.3526 340.273 77.0709 340.161 76.8342 339.939C76.6022 339.716 76.4862 339.449 76.4862 339.136C76.4862 338.824 76.6022 338.556 76.8342 338.334C77.0709 338.111 77.3526 338 77.6793 338C78.006 338 78.2854 338.111 78.5174 338.334C78.7541 338.556 78.8725 338.824 78.8725 339.136C78.8725 339.449 78.7541 339.716 78.5174 339.939C78.2854 340.161 78.006 340.273 77.6793 340.273ZM86.3175 342.091V343.511H80.6641V342.091H86.3175ZM82.3118 339.477H83.9879V349.875C83.9879 350.348 84.0566 350.704 84.1939 350.94C84.3359 351.172 84.5159 351.329 84.7337 351.409C84.9562 351.485 85.1906 351.523 85.4368 351.523C85.6214 351.523 85.773 351.513 85.8913 351.494C86.0097 351.471 86.1044 351.452 86.1754 351.438L86.5163 352.943C86.4027 352.986 86.2441 353.028 86.0405 353.071C85.8369 353.118 85.5788 353.142 85.2663 353.142C84.7929 353.142 84.3288 353.04 83.8743 352.837C83.4245 352.633 83.0504 352.323 82.7521 351.906C82.4586 351.49 82.3118 350.964 82.3118 350.33V339.477ZM93.2955 353.227C92.2443 353.227 91.3376 352.995 90.5753 352.531C89.8177 352.062 89.233 351.409 88.821 350.571C88.4138 349.728 88.2102 348.748 88.2102 347.631C88.2102 346.513 88.4138 345.528 88.821 344.676C89.233 343.819 89.8059 343.152 90.5398 342.673C91.2784 342.19 92.1402 341.949 93.125 341.949C93.6932 341.949 94.2543 342.044 94.8082 342.233C95.3622 342.422 95.8665 342.73 96.321 343.156C96.7756 343.578 97.1378 344.136 97.4077 344.832C97.6776 345.528 97.8125 346.385 97.8125 347.403V348.114H89.4034V346.665H96.108C96.108 346.049 95.9848 345.5 95.7386 345.017C95.4972 344.534 95.1515 344.153 94.7017 343.874C94.2566 343.594 93.7311 343.455 93.125 343.455C92.4574 343.455 91.8797 343.62 91.392 343.952C90.9091 344.278 90.5374 344.705 90.277 345.23C90.0166 345.756 89.8864 346.319 89.8864 346.92V347.886C89.8864 348.71 90.0284 349.409 90.3125 349.982C90.6013 350.55 91.0014 350.983 91.5128 351.281C92.0241 351.575 92.6184 351.722 93.2955 351.722C93.7358 351.722 94.1335 351.66 94.4886 351.537C94.8485 351.409 95.1586 351.22 95.419 350.969C95.6795 350.713 95.8807 350.396 96.0227 350.017L97.642 350.472C97.4716 351.021 97.1851 351.504 96.7827 351.92C96.3802 352.332 95.883 352.654 95.2912 352.886C94.6993 353.114 94.0341 353.227 93.2955 353.227ZM104.482 353.227C103.572 353.227 102.77 352.998 102.074 352.538C101.378 352.074 100.833 351.421 100.44 350.578C100.047 349.731 99.8509 348.729 99.8509 347.574C99.8509 346.428 100.047 345.434 100.44 344.591C100.833 343.748 101.38 343.097 102.081 342.638C102.782 342.179 103.591 341.949 104.51 341.949C105.22 341.949 105.781 342.067 106.193 342.304C106.61 342.536 106.927 342.801 107.145 343.099C107.367 343.393 107.54 343.634 107.663 343.824H107.805V338.455H109.482V353H107.862V351.324H107.663C107.54 351.523 107.365 351.774 107.138 352.077C106.911 352.375 106.586 352.643 106.165 352.879C105.743 353.111 105.182 353.227 104.482 353.227ZM104.709 351.722C105.381 351.722 105.949 351.546 106.413 351.196C106.877 350.841 107.23 350.351 107.472 349.726C107.713 349.096 107.834 348.369 107.834 347.545C107.834 346.731 107.715 346.018 107.479 345.408C107.242 344.792 106.892 344.314 106.428 343.973C105.964 343.627 105.391 343.455 104.709 343.455C103.999 343.455 103.407 343.637 102.933 344.001C102.464 344.361 102.112 344.851 101.875 345.472C101.643 346.087 101.527 346.778 101.527 347.545C101.527 348.322 101.645 349.027 101.882 349.662C102.124 350.292 102.479 350.794 102.947 351.168C103.421 351.537 104.008 351.722 104.709 351.722ZM120.085 346.438V353H118.409V342.091H120.028V343.795H120.17C120.426 343.241 120.814 342.796 121.335 342.46C121.856 342.119 122.528 341.949 123.352 341.949C124.091 341.949 124.737 342.1 125.291 342.403C125.845 342.702 126.276 343.156 126.584 343.767C126.892 344.373 127.045 345.14 127.045 346.068V353H125.369V346.182C125.369 345.325 125.147 344.657 124.702 344.179C124.257 343.696 123.646 343.455 122.869 343.455C122.334 343.455 121.856 343.571 121.435 343.803C121.018 344.035 120.689 344.373 120.447 344.818C120.206 345.263 120.085 345.803 120.085 346.438ZM136.983 348.54V342.091H138.659V353H136.983V351.153H136.87C136.614 351.707 136.216 352.179 135.676 352.567C135.137 352.95 134.455 353.142 133.631 353.142C132.949 353.142 132.343 352.993 131.813 352.695C131.283 352.392 130.866 351.937 130.563 351.331C130.26 350.72 130.108 349.951 130.108 349.023V342.091H131.784V348.909C131.784 349.705 132.007 350.339 132.452 350.812C132.902 351.286 133.475 351.523 134.171 351.523C134.587 351.523 135.011 351.416 135.442 351.203C135.878 350.99 136.242 350.663 136.536 350.223C136.834 349.783 136.983 349.222 136.983 348.54ZM141.729 353V342.091H143.349V343.795H143.491C143.718 343.213 144.085 342.761 144.592 342.439C145.098 342.112 145.707 341.949 146.417 341.949C147.137 341.949 147.736 342.112 148.214 342.439C148.697 342.761 149.073 343.213 149.343 343.795H149.457C149.736 343.232 150.155 342.785 150.714 342.453C151.272 342.117 151.942 341.949 152.724 341.949C153.699 341.949 154.497 342.254 155.117 342.865C155.737 343.471 156.048 344.416 156.048 345.699V353H154.371V345.699C154.371 344.894 154.151 344.319 153.711 343.973C153.271 343.627 152.752 343.455 152.156 343.455C151.388 343.455 150.794 343.687 150.373 344.151C149.951 344.61 149.741 345.192 149.741 345.898V353H148.036V345.528C148.036 344.908 147.835 344.409 147.433 344.03C147.03 343.646 146.512 343.455 145.877 343.455C145.442 343.455 145.034 343.571 144.656 343.803C144.281 344.035 143.978 344.357 143.746 344.768C143.519 345.176 143.406 345.647 143.406 346.182V353H141.729ZM159.339 353V338.455H161.016V343.824H161.158C161.281 343.634 161.451 343.393 161.669 343.099C161.892 342.801 162.209 342.536 162.621 342.304C163.037 342.067 163.601 341.949 164.311 341.949C165.23 341.949 166.039 342.179 166.74 342.638C167.441 343.097 167.988 343.748 168.381 344.591C168.774 345.434 168.97 346.428 168.97 347.574C168.97 348.729 168.774 349.731 168.381 350.578C167.988 351.421 167.443 352.074 166.747 352.538C166.051 352.998 165.249 353.227 164.339 353.227C163.639 353.227 163.078 353.111 162.656 352.879C162.235 352.643 161.911 352.375 161.683 352.077C161.456 351.774 161.281 351.523 161.158 351.324H160.959V353H159.339ZM160.987 347.545C160.987 348.369 161.108 349.096 161.349 349.726C161.591 350.351 161.944 350.841 162.408 351.196C162.872 351.546 163.44 351.722 164.112 351.722C164.813 351.722 165.398 351.537 165.866 351.168C166.34 350.794 166.695 350.292 166.932 349.662C167.173 349.027 167.294 348.322 167.294 347.545C167.294 346.778 167.176 346.087 166.939 345.472C166.707 344.851 166.354 344.361 165.881 344.001C165.412 343.637 164.822 343.455 164.112 343.455C163.43 343.455 162.857 343.627 162.393 343.973C161.929 344.314 161.579 344.792 161.342 345.408C161.106 346.018 160.987 346.731 160.987 347.545ZM176.108 353.227C175.057 353.227 174.15 352.995 173.388 352.531C172.63 352.062 172.045 351.409 171.634 350.571C171.226 349.728 171.023 348.748 171.023 347.631C171.023 346.513 171.226 345.528 171.634 344.676C172.045 343.819 172.618 343.152 173.352 342.673C174.091 342.19 174.953 341.949 175.938 341.949C176.506 341.949 177.067 342.044 177.621 342.233C178.175 342.422 178.679 342.73 179.134 343.156C179.588 343.578 179.95 344.136 180.22 344.832C180.49 345.528 180.625 346.385 180.625 347.403V348.114H172.216V346.665H178.92C178.92 346.049 178.797 345.5 178.551 345.017C178.31 344.534 177.964 344.153 177.514 343.874C177.069 343.594 176.544 343.455 175.938 343.455C175.27 343.455 174.692 343.62 174.205 343.952C173.722 344.278 173.35 344.705 173.089 345.23C172.829 345.756 172.699 346.319 172.699 346.92V347.886C172.699 348.71 172.841 349.409 173.125 349.982C173.414 350.55 173.814 350.983 174.325 351.281C174.837 351.575 175.431 351.722 176.108 351.722C176.548 351.722 176.946 351.66 177.301 351.537C177.661 351.409 177.971 351.22 178.232 350.969C178.492 350.713 178.693 350.396 178.835 350.017L180.455 350.472C180.284 351.021 179.998 351.504 179.595 351.92C179.193 352.332 178.696 352.654 178.104 352.886C177.512 353.114 176.847 353.227 176.108 353.227ZM183.175 353V342.091H184.794V343.739H184.908C185.107 343.199 185.466 342.761 185.987 342.425C186.508 342.089 187.095 341.92 187.749 341.92C187.872 341.92 188.026 341.923 188.21 341.928C188.395 341.932 188.535 341.939 188.629 341.949V343.653C188.572 343.639 188.442 343.618 188.239 343.589C188.04 343.556 187.829 343.54 187.607 343.54C187.076 343.54 186.603 343.651 186.186 343.874C185.774 344.091 185.447 344.394 185.206 344.783C184.969 345.166 184.851 345.604 184.851 346.097V353H183.175ZM200.673 353.227C199.688 353.227 198.824 352.993 198.081 352.524C197.342 352.055 196.764 351.4 196.348 350.557C195.936 349.714 195.73 348.729 195.73 347.602C195.73 346.466 195.936 345.474 196.348 344.626C196.764 343.779 197.342 343.121 198.081 342.652C198.824 342.183 199.688 341.949 200.673 341.949C201.658 341.949 202.52 342.183 203.258 342.652C204.002 343.121 204.579 343.779 204.991 344.626C205.408 345.474 205.616 346.466 205.616 347.602C205.616 348.729 205.408 349.714 204.991 350.557C204.579 351.4 204.002 352.055 203.258 352.524C202.52 352.993 201.658 353.227 200.673 353.227ZM200.673 351.722C201.421 351.722 202.037 351.53 202.52 351.146C203.002 350.763 203.36 350.259 203.592 349.634C203.824 349.009 203.94 348.331 203.94 347.602C203.94 346.873 203.824 346.194 203.592 345.564C203.36 344.934 203.002 344.425 202.52 344.037C202.037 343.649 201.421 343.455 200.673 343.455C199.925 343.455 199.309 343.649 198.826 344.037C198.343 344.425 197.986 344.934 197.754 345.564C197.522 346.194 197.406 346.873 197.406 347.602C197.406 348.331 197.522 349.009 197.754 349.634C197.986 350.259 198.343 350.763 198.826 351.146C199.309 351.53 199.925 351.722 200.673 351.722ZM213.033 342.091V343.511H207.152V342.091H213.033ZM208.913 353V340.585C208.913 339.96 209.06 339.439 209.354 339.023C209.647 338.606 210.028 338.294 210.497 338.085C210.966 337.877 211.461 337.773 211.982 337.773C212.393 337.773 212.73 337.806 212.99 337.872C213.25 337.938 213.445 338 213.572 338.057L213.089 339.506C213.004 339.477 212.886 339.442 212.734 339.399C212.588 339.357 212.393 339.335 212.152 339.335C211.598 339.335 211.198 339.475 210.952 339.754C210.71 340.034 210.589 340.443 210.589 340.983V353H208.913ZM221.234 353V338.455H229.956V340.017H222.995V344.932H229.302V346.494H222.995V353H221.234ZM236.376 353.227C235.391 353.227 234.527 352.993 233.784 352.524C233.045 352.055 232.467 351.4 232.051 350.557C231.639 349.714 231.433 348.729 231.433 347.602C231.433 346.466 231.639 345.474 232.051 344.626C232.467 343.779 233.045 343.121 233.784 342.652C234.527 342.183 235.391 341.949 236.376 341.949C237.361 341.949 238.223 342.183 238.961 342.652C239.705 343.121 240.282 343.779 240.694 344.626C241.111 345.474 241.319 346.466 241.319 347.602C241.319 348.729 241.111 349.714 240.694 350.557C240.282 351.4 239.705 352.055 238.961 352.524C238.223 352.993 237.361 353.227 236.376 353.227ZM236.376 351.722C237.124 351.722 237.74 351.53 238.223 351.146C238.706 350.763 239.063 350.259 239.295 349.634C239.527 349.009 239.643 348.331 239.643 347.602C239.643 346.873 239.527 346.194 239.295 345.564C239.063 344.934 238.706 344.425 238.223 344.037C237.74 343.649 237.124 343.455 236.376 343.455C235.628 343.455 235.012 343.649 234.529 344.037C234.047 344.425 233.689 344.934 233.457 345.564C233.225 346.194 233.109 346.873 233.109 347.602C233.109 348.331 233.225 349.009 233.457 349.634C233.689 350.259 234.047 350.763 234.529 351.146C235.012 351.53 235.628 351.722 236.376 351.722ZM250.753 348.54V342.091H252.429V353H250.753V351.153H250.639C250.384 351.707 249.986 352.179 249.446 352.567C248.906 352.95 248.224 353.142 247.401 353.142C246.719 353.142 246.113 352.993 245.582 352.695C245.052 352.392 244.635 351.937 244.332 351.331C244.029 350.72 243.878 349.951 243.878 349.023V342.091H245.554V348.909C245.554 349.705 245.777 350.339 246.222 350.812C246.671 351.286 247.244 351.523 247.94 351.523C248.357 351.523 248.781 351.416 249.212 351.203C249.647 350.99 250.012 350.663 250.305 350.223C250.604 349.783 250.753 349.222 250.753 348.54ZM257.175 346.438V353H255.499V342.091H257.118V343.795H257.26C257.516 343.241 257.904 342.796 258.425 342.46C258.946 342.119 259.618 341.949 260.442 341.949C261.181 341.949 261.827 342.1 262.381 342.403C262.935 342.702 263.366 343.156 263.674 343.767C263.981 344.373 264.135 345.14 264.135 346.068V353H262.459V346.182C262.459 345.325 262.237 344.657 261.792 344.179C261.346 343.696 260.736 343.455 259.959 343.455C259.424 343.455 258.946 343.571 258.525 343.803C258.108 344.035 257.779 344.373 257.537 344.818C257.296 345.263 257.175 345.803 257.175 346.438ZM271.317 353.227C270.408 353.227 269.606 352.998 268.91 352.538C268.214 352.074 267.669 351.421 267.276 350.578C266.883 349.731 266.687 348.729 266.687 347.574C266.687 346.428 266.883 345.434 267.276 344.591C267.669 343.748 268.216 343.097 268.917 342.638C269.618 342.179 270.427 341.949 271.346 341.949C272.056 341.949 272.617 342.067 273.029 342.304C273.446 342.536 273.763 342.801 273.981 343.099C274.203 343.393 274.376 343.634 274.499 343.824H274.641V338.455H276.317V353H274.698V351.324H274.499C274.376 351.523 274.201 351.774 273.974 352.077C273.746 352.375 273.422 352.643 273.001 352.879C272.579 353.111 272.018 353.227 271.317 353.227ZM271.545 351.722C272.217 351.722 272.785 351.546 273.249 351.196C273.713 350.841 274.066 350.351 274.308 349.726C274.549 349.096 274.67 348.369 274.67 347.545C274.67 346.731 274.551 346.018 274.315 345.408C274.078 344.792 273.728 344.314 273.263 343.973C272.799 343.627 272.227 343.455 271.545 343.455C270.835 343.455 270.243 343.637 269.769 344.001C269.3 344.361 268.948 344.851 268.711 345.472C268.479 346.087 268.363 346.778 268.363 347.545C268.363 348.322 268.481 349.027 268.718 349.662C268.96 350.292 269.315 350.794 269.783 351.168C270.257 351.537 270.844 351.722 271.545 351.722ZM284.194 353.227C283.143 353.227 282.236 352.995 281.474 352.531C280.716 352.062 280.131 351.409 279.719 350.571C279.312 349.728 279.109 348.748 279.109 347.631C279.109 346.513 279.312 345.528 279.719 344.676C280.131 343.819 280.704 343.152 281.438 342.673C282.177 342.19 283.039 341.949 284.023 341.949C284.592 341.949 285.153 342.044 285.707 342.233C286.261 342.422 286.765 342.73 287.219 343.156C287.674 343.578 288.036 344.136 288.306 344.832C288.576 345.528 288.711 346.385 288.711 347.403V348.114H280.302V346.665H287.006C287.006 346.049 286.883 345.5 286.637 345.017C286.396 344.534 286.05 344.153 285.6 343.874C285.155 343.594 284.629 343.455 284.023 343.455C283.356 343.455 282.778 343.62 282.29 343.952C281.808 344.278 281.436 344.705 281.175 345.23C280.915 345.756 280.785 346.319 280.785 346.92V347.886C280.785 348.71 280.927 349.409 281.211 349.982C281.5 350.55 281.9 350.983 282.411 351.281C282.923 351.575 283.517 351.722 284.194 351.722C284.634 351.722 285.032 351.66 285.387 351.537C285.747 351.409 286.057 351.22 286.317 350.969C286.578 350.713 286.779 350.396 286.921 350.017L288.54 350.472C288.37 351.021 288.084 351.504 287.681 351.92C287.279 352.332 286.781 352.654 286.19 352.886C285.598 353.114 284.933 353.227 284.194 353.227ZM291.261 353V342.091H292.88V343.739H292.994C293.192 343.199 293.552 342.761 294.073 342.425C294.594 342.089 295.181 341.92 295.835 341.92C295.958 341.92 296.112 341.923 296.296 341.928C296.481 341.932 296.621 341.939 296.715 341.949V343.653C296.658 343.639 296.528 343.618 296.325 343.589C296.126 343.556 295.915 343.54 295.692 343.54C295.162 343.54 294.689 343.651 294.272 343.874C293.86 344.091 293.533 344.394 293.292 344.783C293.055 345.166 292.937 345.604 292.937 346.097V353H291.261ZM312.509 342.091C312.424 341.371 312.078 340.812 311.472 340.415C310.866 340.017 310.123 339.818 309.242 339.818C308.598 339.818 308.034 339.922 307.551 340.131C307.073 340.339 306.699 340.625 306.429 340.99C306.164 341.355 306.032 341.769 306.032 342.233C306.032 342.621 306.124 342.955 306.309 343.234C306.498 343.509 306.739 343.739 307.033 343.923C307.327 344.103 307.634 344.252 307.956 344.371C308.278 344.484 308.574 344.577 308.844 344.648L310.321 345.045C310.7 345.145 311.122 345.282 311.586 345.457C312.054 345.633 312.502 345.872 312.928 346.175C313.359 346.473 313.714 346.857 313.993 347.325C314.273 347.794 314.412 348.369 314.412 349.051C314.412 349.837 314.206 350.547 313.794 351.182C313.387 351.816 312.791 352.321 312.005 352.695C311.223 353.069 310.274 353.256 309.157 353.256C308.115 353.256 307.213 353.088 306.451 352.751C305.693 352.415 305.096 351.946 304.661 351.345C304.23 350.744 303.986 350.045 303.929 349.25H305.748C305.795 349.799 305.98 350.254 306.301 350.614C306.628 350.969 307.04 351.234 307.537 351.409C308.039 351.58 308.579 351.665 309.157 351.665C309.829 351.665 310.433 351.556 310.968 351.338C311.503 351.116 311.926 350.808 312.239 350.415C312.551 350.017 312.708 349.553 312.708 349.023C312.708 348.54 312.573 348.147 312.303 347.844C312.033 347.541 311.678 347.295 311.238 347.105C310.797 346.916 310.321 346.75 309.81 346.608L308.02 346.097C306.884 345.77 305.984 345.304 305.321 344.697C304.658 344.091 304.327 343.298 304.327 342.318C304.327 341.504 304.547 340.794 304.988 340.188C305.433 339.577 306.029 339.103 306.777 338.767C307.53 338.426 308.371 338.256 309.299 338.256C310.236 338.256 311.069 338.424 311.799 338.76C312.528 339.091 313.105 339.546 313.532 340.124C313.962 340.701 314.19 341.357 314.213 342.091H312.509ZM321.655 353.227C320.604 353.227 319.697 352.995 318.935 352.531C318.177 352.062 317.592 351.409 317.18 350.571C316.773 349.728 316.57 348.748 316.57 347.631C316.57 346.513 316.773 345.528 317.18 344.676C317.592 343.819 318.165 343.152 318.899 342.673C319.638 342.19 320.5 341.949 321.484 341.949C322.053 341.949 322.614 342.044 323.168 342.233C323.722 342.422 324.226 342.73 324.68 343.156C325.135 343.578 325.497 344.136 325.767 344.832C326.037 345.528 326.172 346.385 326.172 347.403V348.114H317.763V346.665H324.467C324.467 346.049 324.344 345.5 324.098 345.017C323.857 344.534 323.511 344.153 323.061 343.874C322.616 343.594 322.09 343.455 321.484 343.455C320.817 343.455 320.239 343.62 319.751 343.952C319.268 344.278 318.897 344.705 318.636 345.23C318.376 345.756 318.246 346.319 318.246 346.92V347.886C318.246 348.71 318.388 349.409 318.672 349.982C318.961 350.55 319.361 350.983 319.872 351.281C320.384 351.575 320.978 351.722 321.655 351.722C322.095 351.722 322.493 351.66 322.848 351.537C323.208 351.409 323.518 351.22 323.778 350.969C324.039 350.713 324.24 350.396 324.382 350.017L326.001 350.472C325.831 351.021 325.545 351.504 325.142 351.92C324.74 352.332 324.242 352.654 323.651 352.886C323.059 353.114 322.393 353.227 321.655 353.227ZM328.722 353V342.091H330.341V343.739H330.455C330.653 343.199 331.013 342.761 331.534 342.425C332.055 342.089 332.642 341.92 333.295 341.92C333.419 341.92 333.572 341.923 333.757 341.928C333.942 341.932 334.081 341.939 334.176 341.949V343.653C334.119 343.639 333.989 343.618 333.786 343.589C333.587 343.556 333.376 343.54 333.153 343.54C332.623 343.54 332.15 343.651 331.733 343.874C331.321 344.091 330.994 344.394 330.753 344.783C330.516 345.166 330.398 345.604 330.398 346.097V353H328.722ZM336.163 353V342.091H337.839V353H336.163ZM337.015 340.273C336.689 340.273 336.407 340.161 336.17 339.939C335.938 339.716 335.822 339.449 335.822 339.136C335.822 338.824 335.938 338.556 336.17 338.334C336.407 338.111 336.689 338 337.015 338C337.342 338 337.621 338.111 337.853 338.334C338.09 338.556 338.208 338.824 338.208 339.136C338.208 339.449 338.09 339.716 337.853 339.939C337.621 340.161 337.342 340.273 337.015 340.273ZM345.483 353.227C344.432 353.227 343.525 352.995 342.763 352.531C342.005 352.062 341.42 351.409 341.009 350.571C340.601 349.728 340.398 348.748 340.398 347.631C340.398 346.513 340.601 345.528 341.009 344.676C341.42 343.819 341.993 343.152 342.727 342.673C343.466 342.19 344.328 341.949 345.312 341.949C345.881 341.949 346.442 342.044 346.996 342.233C347.55 342.422 348.054 342.73 348.509 343.156C348.963 343.578 349.325 344.136 349.595 344.832C349.865 345.528 350 346.385 350 347.403V348.114H341.591V346.665H348.295C348.295 346.049 348.172 345.5 347.926 345.017C347.685 344.534 347.339 344.153 346.889 343.874C346.444 343.594 345.919 343.455 345.312 343.455C344.645 343.455 344.067 343.62 343.58 343.952C343.097 344.278 342.725 344.705 342.464 345.23C342.204 345.756 342.074 346.319 342.074 346.92V347.886C342.074 348.71 342.216 349.409 342.5 349.982C342.789 350.55 343.189 350.983 343.7 351.281C344.212 351.575 344.806 351.722 345.483 351.722C345.923 351.722 346.321 351.66 346.676 351.537C347.036 351.409 347.346 351.22 347.607 350.969C347.867 350.713 348.068 350.396 348.21 350.017L349.83 350.472C349.659 351.021 349.373 351.504 348.97 351.92C348.568 352.332 348.071 352.654 347.479 352.886C346.887 353.114 346.222 353.227 345.483 353.227ZM360.277 344.534L358.771 344.96C358.677 344.709 358.537 344.465 358.352 344.229C358.172 343.987 357.926 343.788 357.614 343.632C357.301 343.476 356.901 343.398 356.413 343.398C355.746 343.398 355.189 343.552 354.744 343.859C354.304 344.162 354.084 344.548 354.084 345.017C354.084 345.434 354.235 345.763 354.538 346.004C354.841 346.246 355.315 346.447 355.959 346.608L357.578 347.006C358.554 347.242 359.28 347.605 359.759 348.092C360.237 348.575 360.476 349.198 360.476 349.96C360.476 350.585 360.296 351.144 359.936 351.636C359.581 352.129 359.084 352.517 358.445 352.801C357.805 353.085 357.062 353.227 356.214 353.227C355.102 353.227 354.181 352.986 353.452 352.503C352.723 352.02 352.261 351.314 352.067 350.386L353.658 349.989C353.809 350.576 354.096 351.016 354.517 351.31C354.943 351.603 355.5 351.75 356.186 351.75C356.967 351.75 357.588 351.584 358.047 351.253C358.511 350.917 358.743 350.514 358.743 350.045C358.743 349.667 358.61 349.349 358.345 349.094C358.08 348.833 357.673 348.639 357.124 348.511L355.305 348.085C354.306 347.848 353.572 347.482 353.104 346.984C352.64 346.482 352.408 345.855 352.408 345.102C352.408 344.487 352.58 343.942 352.926 343.469C353.277 342.995 353.752 342.624 354.354 342.354C354.96 342.084 355.646 341.949 356.413 341.949C357.493 341.949 358.34 342.186 358.956 342.659C359.576 343.133 360.017 343.758 360.277 344.534ZM376.351 344.534L374.846 344.96C374.751 344.709 374.611 344.465 374.426 344.229C374.247 343.987 374 343.788 373.688 343.632C373.375 343.476 372.975 343.398 372.488 343.398C371.82 343.398 371.264 343.552 370.819 343.859C370.378 344.162 370.158 344.548 370.158 345.017C370.158 345.434 370.31 345.763 370.613 346.004C370.916 346.246 371.389 346.447 372.033 346.608L373.652 347.006C374.628 347.242 375.355 347.605 375.833 348.092C376.311 348.575 376.55 349.198 376.55 349.96C376.55 350.585 376.37 351.144 376.01 351.636C375.655 352.129 375.158 352.517 374.519 352.801C373.88 353.085 373.136 353.227 372.289 353.227C371.176 353.227 370.255 352.986 369.526 352.503C368.797 352.02 368.335 351.314 368.141 350.386L369.732 349.989C369.883 350.576 370.17 351.016 370.591 351.31C371.017 351.603 371.574 351.75 372.26 351.75C373.042 351.75 373.662 351.584 374.121 351.253C374.585 350.917 374.817 350.514 374.817 350.045C374.817 349.667 374.685 349.349 374.419 349.094C374.154 348.833 373.747 348.639 373.198 348.511L371.38 348.085C370.381 347.848 369.647 347.482 369.178 346.984C368.714 346.482 368.482 345.855 368.482 345.102C368.482 344.487 368.655 343.942 369 343.469C369.351 342.995 369.827 342.624 370.428 342.354C371.034 342.084 371.721 341.949 372.488 341.949C373.567 341.949 374.415 342.186 375.03 342.659C375.65 343.133 376.091 343.758 376.351 344.534ZM383.647 353.227C382.596 353.227 381.689 352.995 380.927 352.531C380.169 352.062 379.585 351.409 379.173 350.571C378.765 349.728 378.562 348.748 378.562 347.631C378.562 346.513 378.765 345.528 379.173 344.676C379.585 343.819 380.157 343.152 380.891 342.673C381.63 342.19 382.492 341.949 383.477 341.949C384.045 341.949 384.606 342.044 385.16 342.233C385.714 342.422 386.218 342.73 386.673 343.156C387.127 343.578 387.489 344.136 387.759 344.832C388.029 345.528 388.164 346.385 388.164 347.403V348.114H379.755V346.665H386.46C386.46 346.049 386.336 345.5 386.09 345.017C385.849 344.534 385.503 344.153 385.053 343.874C384.608 343.594 384.083 343.455 383.477 343.455C382.809 343.455 382.231 343.62 381.744 343.952C381.261 344.278 380.889 344.705 380.629 345.23C380.368 345.756 380.238 346.319 380.238 346.92V347.886C380.238 348.71 380.38 349.409 380.664 349.982C380.953 350.55 381.353 350.983 381.864 351.281C382.376 351.575 382.97 351.722 383.647 351.722C384.087 351.722 384.485 351.66 384.84 351.537C385.2 351.409 385.51 351.22 385.771 350.969C386.031 350.713 386.232 350.396 386.374 350.017L387.994 350.472C387.823 351.021 387.537 351.504 387.134 351.92C386.732 352.332 386.235 352.654 385.643 352.886C385.051 353.114 384.386 353.227 383.647 353.227ZM390.714 353V342.091H392.333V343.739H392.447C392.646 343.199 393.005 342.761 393.526 342.425C394.047 342.089 394.634 341.92 395.288 341.92C395.411 341.92 395.565 341.923 395.749 341.928C395.934 341.932 396.074 341.939 396.168 341.949V343.653C396.112 343.639 395.981 343.618 395.778 343.589C395.579 343.556 395.368 343.54 395.146 343.54C394.615 343.54 394.142 343.651 393.725 343.874C393.313 344.091 392.987 344.394 392.745 344.783C392.508 345.166 392.39 345.604 392.39 346.097V353H390.714ZM398.155 353V342.091H399.831V353H398.155ZM399.007 340.273C398.681 340.273 398.399 340.161 398.162 339.939C397.93 339.716 397.814 339.449 397.814 339.136C397.814 338.824 397.93 338.556 398.162 338.334C398.399 338.111 398.681 338 399.007 338C399.334 338 399.614 338.111 399.846 338.334C400.082 338.556 400.201 338.824 400.201 339.136C400.201 339.449 400.082 339.716 399.846 339.939C399.614 340.161 399.334 340.273 399.007 340.273ZM406.112 353.256C405.42 353.256 404.793 353.125 404.229 352.865C403.666 352.6 403.219 352.219 402.887 351.722C402.556 351.22 402.39 350.614 402.39 349.903C402.39 349.278 402.513 348.772 402.759 348.384C403.005 347.991 403.335 347.683 403.746 347.46C404.158 347.238 404.613 347.072 405.11 346.963C405.612 346.849 406.116 346.759 406.623 346.693C407.286 346.608 407.823 346.544 408.235 346.501C408.652 346.454 408.955 346.376 409.144 346.267C409.338 346.158 409.435 345.969 409.435 345.699V345.642C409.435 344.941 409.244 344.397 408.86 344.009C408.481 343.62 407.906 343.426 407.134 343.426C406.334 343.426 405.707 343.601 405.252 343.952C404.798 344.302 404.478 344.676 404.293 345.074L402.702 344.506C402.987 343.843 403.365 343.327 403.839 342.957C404.317 342.583 404.838 342.323 405.401 342.176C405.969 342.025 406.528 341.949 407.077 341.949C407.428 341.949 407.83 341.991 408.285 342.077C408.744 342.157 409.187 342.325 409.613 342.581C410.044 342.837 410.401 343.223 410.685 343.739C410.969 344.255 411.112 344.946 411.112 345.812V353H409.435V351.523H409.35C409.237 351.759 409.047 352.013 408.782 352.283C408.517 352.553 408.164 352.782 407.724 352.972C407.283 353.161 406.746 353.256 406.112 353.256ZM406.367 351.75C407.03 351.75 407.589 351.62 408.043 351.359C408.503 351.099 408.848 350.763 409.08 350.351C409.317 349.939 409.435 349.506 409.435 349.051V347.517C409.364 347.602 409.208 347.68 408.967 347.751C408.73 347.818 408.455 347.877 408.143 347.929C407.835 347.976 407.534 348.019 407.241 348.057C406.952 348.09 406.718 348.118 406.538 348.142C406.102 348.199 405.695 348.291 405.316 348.419C404.942 348.542 404.639 348.729 404.407 348.98C404.18 349.226 404.066 349.562 404.066 349.989C404.066 350.571 404.281 351.011 404.712 351.31C405.148 351.603 405.7 351.75 406.367 351.75ZM415.847 338.455V353H414.171V338.455H415.847ZM436.303 338.455V353H434.599L426.673 341.58H426.531V353H424.769V338.455H426.474L434.428 349.903H434.57V338.455H436.303ZM444.032 353.227C443.047 353.227 442.183 352.993 441.44 352.524C440.701 352.055 440.124 351.4 439.707 350.557C439.295 349.714 439.089 348.729 439.089 347.602C439.089 346.466 439.295 345.474 439.707 344.626C440.124 343.779 440.701 343.121 441.44 342.652C442.183 342.183 443.047 341.949 444.032 341.949C445.017 341.949 445.879 342.183 446.618 342.652C447.361 343.121 447.939 343.779 448.35 344.626C448.767 345.474 448.975 346.466 448.975 347.602C448.975 348.729 448.767 349.714 448.35 350.557C447.939 351.4 447.361 352.055 446.618 352.524C445.879 352.993 445.017 353.227 444.032 353.227ZM444.032 351.722C444.78 351.722 445.396 351.53 445.879 351.146C446.362 350.763 446.719 350.259 446.951 349.634C447.183 349.009 447.299 348.331 447.299 347.602C447.299 346.873 447.183 346.194 446.951 345.564C446.719 344.934 446.362 344.425 445.879 344.037C445.396 343.649 444.78 343.455 444.032 343.455C443.284 343.455 442.669 343.649 442.186 344.037C441.703 344.425 441.345 344.934 441.113 345.564C440.881 346.194 440.765 346.873 440.765 347.602C440.765 348.331 440.881 349.009 441.113 349.634C441.345 350.259 441.703 350.763 442.186 351.146C442.669 351.53 443.284 351.722 444.032 351.722ZM453.011 338.455V339.733C453.011 340.121 452.94 340.536 452.798 340.976C452.661 341.411 452.457 341.835 452.188 342.247C451.922 342.654 451.6 343.009 451.222 343.312L450.312 342.574C450.611 342.148 450.869 341.705 451.087 341.246C451.309 340.782 451.42 340.287 451.42 339.761V338.455H453.011ZM461.41 344.534L459.904 344.96C459.809 344.709 459.67 344.465 459.485 344.229C459.305 343.987 459.059 343.788 458.746 343.632C458.434 343.476 458.034 343.398 457.546 343.398C456.879 343.398 456.322 343.552 455.877 343.859C455.437 344.162 455.217 344.548 455.217 345.017C455.217 345.434 455.368 345.763 455.671 346.004C455.974 346.246 456.448 346.447 457.092 346.608L458.711 347.006C459.686 347.242 460.413 347.605 460.891 348.092C461.37 348.575 461.609 349.198 461.609 349.96C461.609 350.585 461.429 351.144 461.069 351.636C460.714 352.129 460.217 352.517 459.577 352.801C458.938 353.085 458.195 353.227 457.347 353.227C456.235 353.227 455.314 352.986 454.585 352.503C453.855 352.02 453.394 351.314 453.2 350.386L454.79 349.989C454.942 350.576 455.228 351.016 455.65 351.31C456.076 351.603 456.632 351.75 457.319 351.75C458.1 351.75 458.72 351.584 459.18 351.253C459.644 350.917 459.876 350.514 459.876 350.045C459.876 349.667 459.743 349.349 459.478 349.094C459.213 348.833 458.806 348.639 458.256 348.511L456.438 348.085C455.439 347.848 454.705 347.482 454.237 346.984C453.772 346.482 453.54 345.855 453.54 345.102C453.54 344.487 453.713 343.942 454.059 343.469C454.409 342.995 454.885 342.624 455.487 342.354C456.093 342.084 456.779 341.949 457.546 341.949C458.626 341.949 459.473 342.186 460.089 342.659C460.709 343.133 461.149 343.758 461.41 344.534ZM472.228 353L468.904 342.091H470.666L473.024 350.443H473.137L475.467 342.091H477.257L479.558 350.415H479.672L482.029 342.091H483.791L480.467 353H478.819L476.433 344.619H476.262L473.876 353H472.228ZM486.007 353V342.091H487.683V353H486.007ZM486.859 340.273C486.532 340.273 486.251 340.161 486.014 339.939C485.782 339.716 485.666 339.449 485.666 339.136C485.666 338.824 485.782 338.556 486.014 338.334C486.251 338.111 486.532 338 486.859 338C487.186 338 487.465 338.111 487.697 338.334C487.934 338.556 488.052 338.824 488.052 339.136C488.052 339.449 487.934 339.716 487.697 339.939C487.465 340.161 487.186 340.273 486.859 340.273ZM492.429 338.455V353H490.753V338.455H492.429ZM497.175 338.455V353H495.499V338.455H497.175ZM505.87 353V342.091H507.489V343.739H507.603C507.802 343.199 508.162 342.761 508.683 342.425C509.203 342.089 509.79 341.92 510.444 341.92C510.567 341.92 510.721 341.923 510.906 341.928C511.09 341.932 511.23 341.939 511.325 341.949V343.653C511.268 343.639 511.138 343.618 510.934 343.589C510.735 343.556 510.524 343.54 510.302 343.54C509.772 343.54 509.298 343.651 508.881 343.874C508.469 344.091 508.143 344.394 507.901 344.783C507.665 345.166 507.546 345.604 507.546 346.097V353H505.87ZM516.522 353.256C515.83 353.256 515.203 353.125 514.64 352.865C514.076 352.6 513.629 352.219 513.297 351.722C512.966 351.22 512.8 350.614 512.8 349.903C512.8 349.278 512.923 348.772 513.169 348.384C513.416 347.991 513.745 347.683 514.157 347.46C514.569 347.238 515.023 347.072 515.52 346.963C516.022 346.849 516.526 346.759 517.033 346.693C517.696 346.608 518.233 346.544 518.645 346.501C519.062 346.454 519.365 346.376 519.554 346.267C519.748 346.158 519.846 345.969 519.846 345.699V345.642C519.846 344.941 519.654 344.397 519.27 344.009C518.891 343.62 518.316 343.426 517.544 343.426C516.744 343.426 516.117 343.601 515.662 343.952C515.208 344.302 514.888 344.676 514.703 345.074L513.113 344.506C513.397 343.843 513.775 343.327 514.249 342.957C514.727 342.583 515.248 342.323 515.811 342.176C516.38 342.025 516.938 341.949 517.488 341.949C517.838 341.949 518.24 341.991 518.695 342.077C519.154 342.157 519.597 342.325 520.023 342.581C520.454 342.837 520.811 343.223 521.096 343.739C521.38 344.255 521.522 344.946 521.522 345.812V353H519.846V351.523H519.76C519.647 351.759 519.457 352.013 519.192 352.283C518.927 352.553 518.574 352.782 518.134 352.972C517.694 353.161 517.156 353.256 516.522 353.256ZM516.777 351.75C517.44 351.75 517.999 351.62 518.453 351.359C518.913 351.099 519.258 350.763 519.49 350.351C519.727 349.939 519.846 349.506 519.846 349.051V347.517C519.775 347.602 519.618 347.68 519.377 347.751C519.14 347.818 518.865 347.877 518.553 347.929C518.245 347.976 517.944 348.019 517.651 348.057C517.362 348.09 517.128 348.118 516.948 348.142C516.512 348.199 516.105 348.291 515.726 348.419C515.352 348.542 515.049 348.729 514.817 348.98C514.59 349.226 514.476 349.562 514.476 349.989C514.476 350.571 514.692 351.011 515.123 351.31C515.558 351.603 516.11 351.75 516.777 351.75ZM526.257 346.438V353H524.581V342.091H526.2V343.795H526.342C526.598 343.241 526.986 342.796 527.507 342.46C528.028 342.119 528.7 341.949 529.524 341.949C530.263 341.949 530.909 342.1 531.463 342.403C532.017 342.702 532.448 343.156 532.756 343.767C533.063 344.373 533.217 345.14 533.217 346.068V353H531.541V346.182C531.541 345.325 531.319 344.657 530.874 344.179C530.429 343.696 529.818 343.455 529.041 343.455C528.506 343.455 528.028 343.571 527.607 343.803C527.19 344.035 526.861 344.373 526.619 344.818C526.378 345.263 526.257 345.803 526.257 346.438ZM540.684 357.318C539.874 357.318 539.178 357.214 538.596 357.006C538.013 356.802 537.528 356.532 537.14 356.196C536.756 355.865 536.451 355.509 536.223 355.131L537.559 354.193C537.71 354.392 537.902 354.619 538.134 354.875C538.366 355.135 538.683 355.36 539.086 355.55C539.493 355.744 540.025 355.841 540.684 355.841C541.564 355.841 542.291 355.628 542.864 355.202C543.437 354.776 543.723 354.108 543.723 353.199V350.983H543.581C543.458 351.182 543.283 351.428 543.056 351.722C542.833 352.01 542.511 352.268 542.09 352.496C541.673 352.718 541.11 352.83 540.4 352.83C539.519 352.83 538.728 352.621 538.027 352.205C537.331 351.788 536.78 351.182 536.373 350.386C535.97 349.591 535.769 348.625 535.769 347.489C535.769 346.371 535.965 345.398 536.358 344.57C536.751 343.736 537.298 343.092 537.999 342.638C538.7 342.179 539.509 341.949 540.428 341.949C541.138 341.949 541.702 342.067 542.118 342.304C542.54 342.536 542.862 342.801 543.084 343.099C543.311 343.393 543.487 343.634 543.61 343.824H543.78V342.091H545.4V353.312C545.4 354.25 545.186 355.012 544.76 355.599C544.339 356.191 543.771 356.625 543.056 356.899C542.346 357.179 541.555 357.318 540.684 357.318ZM540.627 351.324C541.299 351.324 541.867 351.17 542.331 350.862C542.795 350.554 543.148 350.112 543.39 349.534C543.631 348.956 543.752 348.265 543.752 347.46C543.752 346.674 543.633 345.981 543.397 345.379C543.16 344.778 542.81 344.307 542.346 343.966C541.882 343.625 541.309 343.455 540.627 343.455C539.917 343.455 539.325 343.634 538.851 343.994C538.382 344.354 538.03 344.837 537.793 345.443C537.561 346.049 537.445 346.722 537.445 347.46C537.445 348.218 537.563 348.888 537.8 349.47C538.042 350.048 538.397 350.502 538.865 350.834C539.339 351.161 539.926 351.324 540.627 351.324ZM553.042 353.227C551.99 353.227 551.084 352.995 550.321 352.531C549.564 352.062 548.979 351.409 548.567 350.571C548.16 349.728 547.956 348.748 547.956 347.631C547.956 346.513 548.16 345.528 548.567 344.676C548.979 343.819 549.552 343.152 550.286 342.673C551.025 342.19 551.886 341.949 552.871 341.949C553.439 341.949 554 342.044 554.554 342.233C555.108 342.422 555.613 342.73 556.067 343.156C556.522 343.578 556.884 344.136 557.154 344.832C557.424 345.528 557.559 346.385 557.559 347.403V348.114H549.15V346.665H555.854C555.854 346.049 555.731 345.5 555.485 345.017C555.243 344.534 554.898 344.153 554.448 343.874C554.003 343.594 553.477 343.455 552.871 343.455C552.203 343.455 551.626 343.62 551.138 343.952C550.655 344.278 550.283 344.705 550.023 345.23C549.763 345.756 549.632 346.319 549.632 346.92V347.886C549.632 348.71 549.775 349.409 550.059 349.982C550.347 350.55 550.748 350.983 551.259 351.281C551.77 351.575 552.364 351.722 553.042 351.722C553.482 351.722 553.88 351.66 554.235 351.537C554.595 351.409 554.905 351.22 555.165 350.969C555.426 350.713 555.627 350.396 555.769 350.017L557.388 350.472C557.218 351.021 556.931 351.504 556.529 351.92C556.126 352.332 555.629 352.654 555.037 352.886C554.445 353.114 553.78 353.227 553.042 353.227ZM570.591 342.091V343.511H564.711V342.091H570.591ZM566.472 353V340.585C566.472 339.96 566.619 339.439 566.912 339.023C567.206 338.606 567.587 338.294 568.056 338.085C568.525 337.877 569.019 337.773 569.54 337.773C569.952 337.773 570.288 337.806 570.549 337.872C570.809 337.938 571.003 338 571.131 338.057L570.648 339.506C570.563 339.477 570.444 339.442 570.293 339.399C570.146 339.357 569.952 339.335 569.711 339.335C569.157 339.335 568.757 339.475 568.51 339.754C568.269 340.034 568.148 340.443 568.148 340.983V353H566.472ZM572.94 353V342.091H574.56V343.739H574.673C574.872 343.199 575.232 342.761 575.753 342.425C576.274 342.089 576.861 341.92 577.514 341.92C577.637 341.92 577.791 341.923 577.976 341.928C578.161 341.932 578.3 341.939 578.395 341.949V343.653C578.338 343.639 578.208 343.618 578.004 343.589C577.805 343.556 577.595 343.54 577.372 343.54C576.842 343.54 576.368 343.651 575.952 343.874C575.54 344.091 575.213 344.394 574.972 344.783C574.735 345.166 574.616 345.604 574.616 346.097V353H572.94ZM584.482 353.227C583.497 353.227 582.633 352.993 581.889 352.524C581.151 352.055 580.573 351.4 580.156 350.557C579.744 349.714 579.538 348.729 579.538 347.602C579.538 346.466 579.744 345.474 580.156 344.626C580.573 343.779 581.151 343.121 581.889 342.652C582.633 342.183 583.497 341.949 584.482 341.949C585.466 341.949 586.328 342.183 587.067 342.652C587.81 343.121 588.388 343.779 588.8 344.626C589.216 345.474 589.425 346.466 589.425 347.602C589.425 348.729 589.216 349.714 588.8 350.557C588.388 351.4 587.81 352.055 587.067 352.524C586.328 352.993 585.466 353.227 584.482 353.227ZM584.482 351.722C585.23 351.722 585.845 351.53 586.328 351.146C586.811 350.763 587.169 350.259 587.401 349.634C587.633 349.009 587.749 348.331 587.749 347.602C587.749 346.873 587.633 346.194 587.401 345.564C587.169 344.934 586.811 344.425 586.328 344.037C585.845 343.649 585.23 343.455 584.482 343.455C583.733 343.455 583.118 343.649 582.635 344.037C582.152 344.425 581.795 344.934 581.562 345.564C581.33 346.194 581.214 346.873 581.214 347.602C581.214 348.331 581.33 349.009 581.562 349.634C581.795 350.259 582.152 350.763 582.635 351.146C583.118 351.53 583.733 351.722 584.482 351.722ZM591.983 353V342.091H593.603V343.795H593.745C593.972 343.213 594.339 342.761 594.846 342.439C595.352 342.112 595.961 341.949 596.671 341.949C597.391 341.949 597.989 342.112 598.468 342.439C598.951 342.761 599.327 343.213 599.597 343.795H599.711C599.99 343.232 600.409 342.785 600.968 342.453C601.526 342.117 602.196 341.949 602.978 341.949C603.953 341.949 604.751 342.254 605.371 342.865C605.991 343.471 606.301 344.416 606.301 345.699V353H604.625V345.699C604.625 344.894 604.405 344.319 603.965 343.973C603.525 343.627 603.006 343.455 602.409 343.455C601.642 343.455 601.048 343.687 600.627 344.151C600.205 344.61 599.995 345.192 599.995 345.898V353H598.29V345.528C598.29 344.908 598.089 344.409 597.686 344.03C597.284 343.646 596.766 343.455 596.131 343.455C595.695 343.455 595.288 343.571 594.909 343.803C594.535 344.035 594.232 344.357 594 344.768C593.773 345.176 593.659 345.647 593.659 346.182V353H591.983ZM1.76136 377V362.455H10.483V364.017H3.52273V368.932H9.82955V370.494H3.52273V377H1.76136ZM17.9883 377.199C16.9182 377.199 16.0067 376.908 15.2539 376.325C14.5011 375.738 13.9258 374.888 13.5281 373.776C13.1303 372.658 12.9315 371.309 12.9315 369.727C12.9315 368.155 13.1303 366.813 13.5281 365.7C13.9305 364.583 14.5082 363.731 15.261 363.143C16.0186 362.552 16.9277 362.256 17.9883 362.256C19.0489 362.256 19.9556 362.552 20.7085 363.143C21.466 363.731 22.0437 364.583 22.4414 365.7C22.8439 366.813 23.0451 368.155 23.0451 369.727C23.0451 371.309 22.8462 372.658 22.4485 373.776C22.0508 374.888 21.4755 375.738 20.7227 376.325C19.9698 376.908 19.0584 377.199 17.9883 377.199ZM17.9883 375.636C19.0489 375.636 19.8728 375.125 20.4599 374.102C21.047 373.08 21.3406 371.621 21.3406 369.727C21.3406 368.468 21.2056 367.395 20.9357 366.51C20.6706 365.625 20.2871 364.95 19.7852 364.486C19.288 364.022 18.689 363.79 17.9883 363.79C16.9371 363.79 16.1156 364.308 15.5238 365.345C14.9319 366.377 14.636 367.838 14.636 369.727C14.636 370.987 14.7686 372.057 15.0337 372.938C15.2989 373.818 15.68 374.488 16.1772 374.947C16.6791 375.407 17.2828 375.636 17.9883 375.636ZM30.4883 377.199C29.4182 377.199 28.5067 376.908 27.7539 376.325C27.0011 375.738 26.4258 374.888 26.0281 373.776C25.6303 372.658 25.4315 371.309 25.4315 369.727C25.4315 368.155 25.6303 366.813 26.0281 365.7C26.4305 364.583 27.0082 363.731 27.761 363.143C28.5186 362.552 29.4277 362.256 30.4883 362.256C31.5489 362.256 32.4556 362.552 33.2085 363.143C33.966 363.731 34.5437 364.583 34.9414 365.7C35.3439 366.813 35.5451 368.155 35.5451 369.727C35.5451 371.309 35.3462 372.658 34.9485 373.776C34.5508 374.888 33.9755 375.738 33.2227 376.325C32.4698 376.908 31.5584 377.199 30.4883 377.199ZM30.4883 375.636C31.5489 375.636 32.3728 375.125 32.9599 374.102C33.547 373.08 33.8406 371.621 33.8406 369.727C33.8406 368.468 33.7056 367.395 33.4357 366.51C33.1706 365.625 32.7871 364.95 32.2852 364.486C31.788 364.022 31.189 363.79 30.4883 363.79C29.4371 363.79 28.6156 364.308 28.0238 365.345C27.4319 366.377 27.136 367.838 27.136 369.727C27.136 370.987 27.2686 372.057 27.5337 372.938C27.7989 373.818 28.18 374.488 28.6772 374.947C29.1791 375.407 29.7828 375.636 30.4883 375.636ZM42.9883 377.199C41.9182 377.199 41.0067 376.908 40.2539 376.325C39.5011 375.738 38.9258 374.888 38.5281 373.776C38.1303 372.658 37.9315 371.309 37.9315 369.727C37.9315 368.155 38.1303 366.813 38.5281 365.7C38.9305 364.583 39.5082 363.731 40.261 363.143C41.0186 362.552 41.9277 362.256 42.9883 362.256C44.0489 362.256 44.9556 362.552 45.7085 363.143C46.466 363.731 47.0437 364.583 47.4414 365.7C47.8439 366.813 48.0451 368.155 48.0451 369.727C48.0451 371.309 47.8462 372.658 47.4485 373.776C47.0508 374.888 46.4755 375.738 45.7227 376.325C44.9698 376.908 44.0584 377.199 42.9883 377.199ZM42.9883 375.636C44.0489 375.636 44.8728 375.125 45.4599 374.102C46.047 373.08 46.3406 371.621 46.3406 369.727C46.3406 368.468 46.2056 367.395 45.9357 366.51C45.6706 365.625 45.2871 364.95 44.7852 364.486C44.288 364.022 43.689 363.79 42.9883 363.79C41.9371 363.79 41.1156 364.308 40.5238 365.345C39.9319 366.377 39.636 367.838 39.636 369.727C39.636 370.987 39.7686 372.057 40.0337 372.938C40.2989 373.818 40.68 374.488 41.1772 374.947C41.6791 375.407 42.2828 375.636 42.9883 375.636ZM55.4883 377.199C54.4182 377.199 53.5067 376.908 52.7539 376.325C52.0011 375.738 51.4258 374.888 51.0281 373.776C50.6303 372.658 50.4315 371.309 50.4315 369.727C50.4315 368.155 50.6303 366.813 51.0281 365.7C51.4305 364.583 52.0082 363.731 52.761 363.143C53.5186 362.552 54.4277 362.256 55.4883 362.256C56.5489 362.256 57.4556 362.552 58.2085 363.143C58.966 363.731 59.5437 364.583 59.9414 365.7C60.3439 366.813 60.5451 368.155 60.5451 369.727C60.5451 371.309 60.3462 372.658 59.9485 373.776C59.5508 374.888 58.9755 375.738 58.2227 376.325C57.4698 376.908 56.5584 377.199 55.4883 377.199ZM55.4883 375.636C56.5489 375.636 57.3728 375.125 57.9599 374.102C58.547 373.08 58.8406 371.621 58.8406 369.727C58.8406 368.468 58.7056 367.395 58.4357 366.51C58.1706 365.625 57.7871 364.95 57.2852 364.486C56.788 364.022 56.189 363.79 55.4883 363.79C54.4371 363.79 53.6156 364.308 53.0238 365.345C52.4319 366.377 52.136 367.838 52.136 369.727C52.136 370.987 52.2686 372.057 52.5337 372.938C52.7989 373.818 53.18 374.488 53.6772 374.947C54.1791 375.407 54.7828 375.636 55.4883 375.636ZM73.6417 366.091V367.511H67.9883V366.091H73.6417ZM69.636 363.477H71.3121V373.875C71.3121 374.348 71.3808 374.704 71.5181 374.94C71.6602 375.172 71.8401 375.329 72.0579 375.409C72.2804 375.485 72.5148 375.523 72.761 375.523C72.9457 375.523 73.0972 375.513 73.2156 375.494C73.3339 375.471 73.4286 375.452 73.4996 375.438L73.8406 376.943C73.7269 376.986 73.5683 377.028 73.3647 377.071C73.1611 377.118 72.9031 377.142 72.5906 377.142C72.1171 377.142 71.6531 377.04 71.1985 376.837C70.7487 376.633 70.3746 376.323 70.0763 375.906C69.7828 375.49 69.636 374.964 69.636 374.33V363.477ZM80.4776 377.227C79.4928 377.227 78.6287 376.993 77.8853 376.524C77.1467 376.055 76.569 375.4 76.1523 374.557C75.7404 373.714 75.5344 372.729 75.5344 371.602C75.5344 370.466 75.7404 369.474 76.1523 368.626C76.569 367.779 77.1467 367.121 77.8853 366.652C78.6287 366.183 79.4928 365.949 80.4776 365.949C81.4625 365.949 82.3242 366.183 83.0629 366.652C83.8062 367.121 84.3839 367.779 84.7958 368.626C85.2125 369.474 85.4208 370.466 85.4208 371.602C85.4208 372.729 85.2125 373.714 84.7958 374.557C84.3839 375.4 83.8062 376.055 83.0629 376.524C82.3242 376.993 81.4625 377.227 80.4776 377.227ZM80.4776 375.722C81.2257 375.722 81.8413 375.53 82.3242 375.146C82.8072 374.763 83.1647 374.259 83.3967 373.634C83.6287 373.009 83.7447 372.331 83.7447 371.602C83.7447 370.873 83.6287 370.194 83.3967 369.564C83.1647 368.934 82.8072 368.425 82.3242 368.037C81.8413 367.649 81.2257 367.455 80.4776 367.455C79.7295 367.455 79.114 367.649 78.631 368.037C78.1481 368.425 77.7906 368.934 77.5586 369.564C77.3266 370.194 77.2106 370.873 77.2106 371.602C77.2106 372.331 77.3266 373.009 77.5586 373.634C77.7906 374.259 78.1481 374.763 78.631 375.146C79.114 375.53 79.7295 375.722 80.4776 375.722ZM93.8317 377V362.455H102.553V364.017H95.593V368.932H101.9V370.494H95.593V377H93.8317ZM109.945 362.256C110.542 362.26 111.138 362.374 111.735 362.597C112.331 362.819 112.876 363.188 113.368 363.705C113.861 364.216 114.256 364.914 114.554 365.8C114.853 366.685 115.002 367.795 115.002 369.131C115.002 370.423 114.879 371.571 114.632 372.575C114.391 373.574 114.041 374.417 113.581 375.104C113.127 375.79 112.573 376.311 111.919 376.666C111.271 377.021 110.537 377.199 109.718 377.199C108.903 377.199 108.176 377.038 107.537 376.716C106.903 376.389 106.382 375.937 105.975 375.359C105.572 374.777 105.314 374.102 105.201 373.335H106.934C107.09 374.003 107.4 374.554 107.864 374.99C108.333 375.421 108.951 375.636 109.718 375.636C110.84 375.636 111.725 375.146 112.374 374.166C113.027 373.186 113.354 371.801 113.354 370.011H113.24C112.975 370.409 112.66 370.752 112.296 371.041C111.931 371.33 111.526 371.553 111.081 371.709C110.636 371.865 110.163 371.943 109.661 371.943C108.828 371.943 108.063 371.737 107.367 371.325C106.676 370.909 106.122 370.338 105.705 369.614C105.293 368.884 105.087 368.051 105.087 367.114C105.087 366.223 105.286 365.409 105.684 364.67C106.086 363.927 106.65 363.335 107.374 362.895C108.103 362.455 108.96 362.241 109.945 362.256ZM109.945 363.818C109.348 363.818 108.811 363.967 108.333 364.266C107.859 364.559 107.483 364.957 107.203 365.459C106.929 365.956 106.792 366.508 106.792 367.114C106.792 367.72 106.924 368.271 107.189 368.768C107.459 369.261 107.826 369.654 108.29 369.947C108.759 370.236 109.292 370.381 109.888 370.381C110.338 370.381 110.757 370.293 111.145 370.118C111.533 369.938 111.872 369.694 112.161 369.386C112.454 369.074 112.684 368.721 112.85 368.328C113.016 367.93 113.098 367.516 113.098 367.085C113.098 366.517 112.961 365.984 112.686 365.487C112.417 364.99 112.042 364.588 111.564 364.28C111.091 363.972 110.551 363.818 109.945 363.818ZM122.425 362.256C123.022 362.26 123.619 362.374 124.215 362.597C124.812 362.819 125.356 363.188 125.849 363.705C126.341 364.216 126.737 364.914 127.035 365.8C127.333 366.685 127.482 367.795 127.482 369.131C127.482 370.423 127.359 371.571 127.113 372.575C126.871 373.574 126.521 374.417 126.062 375.104C125.607 375.79 125.053 376.311 124.4 376.666C123.751 377.021 123.017 377.199 122.198 377.199C121.384 377.199 120.657 377.038 120.018 376.716C119.383 376.389 118.862 375.937 118.455 375.359C118.053 374.777 117.795 374.102 117.681 373.335H119.414C119.57 374.003 119.88 374.554 120.344 374.99C120.813 375.421 121.431 375.636 122.198 375.636C123.32 375.636 124.206 375.146 124.854 374.166C125.508 373.186 125.835 371.801 125.835 370.011H125.721C125.456 370.409 125.141 370.752 124.776 371.041C124.412 371.33 124.007 371.553 123.562 371.709C123.117 371.865 122.643 371.943 122.141 371.943C121.308 371.943 120.543 371.737 119.847 371.325C119.156 370.909 118.602 370.338 118.185 369.614C117.773 368.884 117.567 368.051 117.567 367.114C117.567 366.223 117.766 365.409 118.164 364.67C118.567 363.927 119.13 363.335 119.854 362.895C120.584 362.455 121.441 362.241 122.425 362.256ZM122.425 363.818C121.829 363.818 121.291 363.967 120.813 364.266C120.34 364.559 119.963 364.957 119.684 365.459C119.409 365.956 119.272 366.508 119.272 367.114C119.272 367.72 119.405 368.271 119.67 368.768C119.94 369.261 120.307 369.654 120.771 369.947C121.239 370.236 121.772 370.381 122.369 370.381C122.818 370.381 123.237 370.293 123.626 370.118C124.014 369.938 124.353 369.694 124.641 369.386C124.935 369.074 125.165 368.721 125.33 368.328C125.496 367.93 125.579 367.516 125.579 367.085C125.579 366.517 125.442 365.984 125.167 365.487C124.897 364.99 124.523 364.588 124.045 364.28C123.571 363.972 123.031 363.818 122.425 363.818ZM134.906 362.256C135.502 362.26 136.099 362.374 136.696 362.597C137.292 362.819 137.837 363.188 138.329 363.705C138.822 364.216 139.217 364.914 139.515 365.8C139.814 366.685 139.963 367.795 139.963 369.131C139.963 370.423 139.84 371.571 139.593 372.575C139.352 373.574 139.002 374.417 138.542 375.104C138.088 375.79 137.534 376.311 136.88 376.666C136.232 377.021 135.498 377.199 134.679 377.199C133.864 377.199 133.137 377.038 132.498 376.716C131.864 376.389 131.343 375.937 130.936 375.359C130.533 374.777 130.275 374.102 130.162 373.335H131.895C132.051 374.003 132.361 374.554 132.825 374.99C133.294 375.421 133.912 375.636 134.679 375.636C135.801 375.636 136.686 375.146 137.335 374.166C137.988 373.186 138.315 371.801 138.315 370.011H138.201C137.936 370.409 137.621 370.752 137.257 371.041C136.892 371.33 136.487 371.553 136.042 371.709C135.597 371.865 135.124 371.943 134.622 371.943C133.788 371.943 133.024 371.737 132.328 371.325C131.636 370.909 131.083 370.338 130.666 369.614C130.254 368.884 130.048 368.051 130.048 367.114C130.048 366.223 130.247 365.409 130.645 364.67C131.047 363.927 131.61 363.335 132.335 362.895C133.064 362.455 133.921 362.241 134.906 362.256ZM134.906 363.818C134.309 363.818 133.772 363.967 133.294 364.266C132.82 364.559 132.444 364.957 132.164 365.459C131.89 365.956 131.752 366.508 131.752 367.114C131.752 367.72 131.885 368.271 132.15 368.768C132.42 369.261 132.787 369.654 133.251 369.947C133.72 370.236 134.252 370.381 134.849 370.381C135.299 370.381 135.718 370.293 136.106 370.118C136.494 369.938 136.833 369.694 137.122 369.386C137.415 369.074 137.645 368.721 137.811 368.328C137.976 367.93 138.059 367.516 138.059 367.085C138.059 366.517 137.922 365.984 137.647 365.487C137.377 364.99 137.003 364.588 136.525 364.28C136.052 363.972 135.512 363.818 134.906 363.818ZM147.386 362.256C147.983 362.26 148.58 362.374 149.176 362.597C149.773 362.819 150.317 363.188 150.81 363.705C151.302 364.216 151.697 364.914 151.996 365.8C152.294 366.685 152.443 367.795 152.443 369.131C152.443 370.423 152.32 371.571 152.074 372.575C151.832 373.574 151.482 374.417 151.023 375.104C150.568 375.79 150.014 376.311 149.361 376.666C148.712 377.021 147.978 377.199 147.159 377.199C146.345 377.199 145.618 377.038 144.979 376.716C144.344 376.389 143.823 375.937 143.416 375.359C143.014 374.777 142.756 374.102 142.642 373.335H144.375C144.531 374.003 144.841 374.554 145.305 374.99C145.774 375.421 146.392 375.636 147.159 375.636C148.281 375.636 149.167 375.146 149.815 374.166C150.469 373.186 150.795 371.801 150.795 370.011H150.682C150.417 370.409 150.102 370.752 149.737 371.041C149.373 371.33 148.968 371.553 148.523 371.709C148.078 371.865 147.604 371.943 147.102 371.943C146.269 371.943 145.504 371.737 144.808 371.325C144.117 370.909 143.563 370.338 143.146 369.614C142.734 368.884 142.528 368.051 142.528 367.114C142.528 366.223 142.727 365.409 143.125 364.67C143.527 363.927 144.091 363.335 144.815 362.895C145.545 362.455 146.402 362.241 147.386 362.256ZM147.386 363.818C146.79 363.818 146.252 363.967 145.774 364.266C145.301 364.559 144.924 364.957 144.645 365.459C144.37 365.956 144.233 366.508 144.233 367.114C144.233 367.72 144.366 368.271 144.631 368.768C144.901 369.261 145.268 369.654 145.732 369.947C146.2 370.236 146.733 370.381 147.33 370.381C147.779 370.381 148.198 370.293 148.587 370.118C148.975 369.938 149.313 369.694 149.602 369.386C149.896 369.074 150.125 368.721 150.291 368.328C150.457 367.93 150.54 367.516 150.54 367.085C150.54 366.517 150.402 365.984 150.128 365.487C149.858 364.99 149.484 364.588 149.006 364.28C148.532 363.972 147.992 363.818 147.386 363.818ZM164.1 377.256C163.408 377.256 162.781 377.125 162.218 376.865C161.654 376.6 161.207 376.219 160.875 375.722C160.544 375.22 160.378 374.614 160.378 373.903C160.378 373.278 160.501 372.772 160.748 372.384C160.994 371.991 161.323 371.683 161.735 371.46C162.147 371.238 162.601 371.072 163.098 370.963C163.6 370.849 164.105 370.759 164.611 370.693C165.274 370.608 165.811 370.544 166.223 370.501C166.64 370.454 166.943 370.376 167.132 370.267C167.327 370.158 167.424 369.969 167.424 369.699V369.642C167.424 368.941 167.232 368.397 166.848 368.009C166.47 367.62 165.894 367.426 165.123 367.426C164.322 367.426 163.695 367.601 163.24 367.952C162.786 368.302 162.466 368.676 162.282 369.074L160.691 368.506C160.975 367.843 161.354 367.327 161.827 366.957C162.305 366.583 162.826 366.323 163.39 366.176C163.958 366.025 164.516 365.949 165.066 365.949C165.416 365.949 165.819 365.991 166.273 366.077C166.732 366.157 167.175 366.325 167.601 366.581C168.032 366.837 168.39 367.223 168.674 367.739C168.958 368.255 169.1 368.946 169.1 369.812V377H167.424V375.523H167.338C167.225 375.759 167.035 376.013 166.77 376.283C166.505 376.553 166.152 376.782 165.712 376.972C165.272 377.161 164.734 377.256 164.1 377.256ZM164.355 375.75C165.018 375.75 165.577 375.62 166.032 375.359C166.491 375.099 166.837 374.763 167.069 374.351C167.305 373.939 167.424 373.506 167.424 373.051V371.517C167.353 371.602 167.196 371.68 166.955 371.751C166.718 371.818 166.444 371.877 166.131 371.929C165.823 371.976 165.523 372.019 165.229 372.057C164.94 372.09 164.706 372.118 164.526 372.142C164.09 372.199 163.683 372.291 163.304 372.419C162.93 372.542 162.627 372.729 162.395 372.98C162.168 373.226 162.054 373.562 162.054 373.989C162.054 374.571 162.27 375.011 162.701 375.31C163.136 375.603 163.688 375.75 164.355 375.75ZM179.886 368.534L178.381 368.96C178.286 368.709 178.146 368.465 177.962 368.229C177.782 367.987 177.536 367.788 177.223 367.632C176.911 367.476 176.51 367.398 176.023 367.398C175.355 367.398 174.799 367.552 174.354 367.859C173.913 368.162 173.693 368.548 173.693 369.017C173.693 369.434 173.845 369.763 174.148 370.004C174.451 370.246 174.924 370.447 175.568 370.608L177.188 371.006C178.163 371.242 178.89 371.605 179.368 372.092C179.846 372.575 180.085 373.198 180.085 373.96C180.085 374.585 179.905 375.144 179.545 375.636C179.19 376.129 178.693 376.517 178.054 376.801C177.415 377.085 176.671 377.227 175.824 377.227C174.711 377.227 173.79 376.986 173.061 376.503C172.332 376.02 171.87 375.314 171.676 374.386L173.267 373.989C173.419 374.576 173.705 375.016 174.126 375.31C174.553 375.603 175.109 375.75 175.795 375.75C176.577 375.75 177.197 375.584 177.656 375.253C178.12 374.917 178.352 374.514 178.352 374.045C178.352 373.667 178.22 373.349 177.955 373.094C177.689 372.833 177.282 372.639 176.733 372.511L174.915 372.085C173.916 371.848 173.182 371.482 172.713 370.984C172.249 370.482 172.017 369.855 172.017 369.102C172.017 368.487 172.19 367.942 172.536 367.469C172.886 366.995 173.362 366.624 173.963 366.354C174.569 366.084 175.256 365.949 176.023 365.949C177.102 365.949 177.95 366.186 178.565 366.659C179.186 367.133 179.626 367.758 179.886 368.534ZM189.909 362.455V377H188.233V362.455H189.909ZM192.979 377V366.091H194.656V377H192.979ZM193.832 364.273C193.505 364.273 193.223 364.161 192.987 363.939C192.754 363.716 192.638 363.449 192.638 363.136C192.638 362.824 192.754 362.556 192.987 362.334C193.223 362.111 193.505 362 193.832 362C194.158 362 194.438 362.111 194.67 362.334C194.906 362.556 195.025 362.824 195.025 363.136C195.025 363.449 194.906 363.716 194.67 363.939C194.438 364.161 194.158 364.273 193.832 364.273ZM197.725 377V366.091H199.345V367.795H199.487C199.714 367.213 200.081 366.761 200.588 366.439C201.094 366.112 201.703 365.949 202.413 365.949C203.133 365.949 203.732 366.112 204.21 366.439C204.693 366.761 205.069 367.213 205.339 367.795H205.453C205.732 367.232 206.151 366.785 206.71 366.453C207.269 366.117 207.939 365.949 208.72 365.949C209.695 365.949 210.493 366.254 211.113 366.865C211.734 367.471 212.044 368.416 212.044 369.699V377H210.368V369.699C210.368 368.894 210.147 368.319 209.707 367.973C209.267 367.627 208.748 367.455 208.152 367.455C207.385 367.455 206.79 367.687 206.369 368.151C205.948 368.61 205.737 369.192 205.737 369.898V377H204.032V369.528C204.032 368.908 203.831 368.409 203.429 368.03C203.026 367.646 202.508 367.455 201.873 367.455C201.438 367.455 201.03 367.571 200.652 367.803C200.278 368.035 199.975 368.357 199.743 368.768C199.515 369.176 199.402 369.647 199.402 370.182V377H197.725ZM215.108 377V366.091H216.784V377H215.108ZM215.961 364.273C215.634 364.273 215.352 364.161 215.115 363.939C214.883 363.716 214.767 363.449 214.767 363.136C214.767 362.824 214.883 362.556 215.115 362.334C215.352 362.111 215.634 362 215.961 362C216.287 362 216.567 362.111 216.799 362.334C217.035 362.556 217.154 362.824 217.154 363.136C217.154 363.449 217.035 363.716 216.799 363.939C216.567 364.161 216.287 364.273 215.961 364.273ZM224.599 366.091V367.511H218.945V366.091H224.599ZM220.593 363.477H222.269V373.875C222.269 374.348 222.338 374.704 222.475 374.94C222.617 375.172 222.797 375.329 223.015 375.409C223.237 375.485 223.472 375.523 223.718 375.523C223.903 375.523 224.054 375.513 224.173 375.494C224.291 375.471 224.386 375.452 224.457 375.438L224.798 376.943C224.684 376.986 224.525 377.028 224.322 377.071C224.118 377.118 223.86 377.142 223.548 377.142C223.074 377.142 222.61 377.04 222.156 376.837C221.706 376.633 221.332 376.323 221.033 375.906C220.74 375.49 220.593 374.964 220.593 374.33V363.477ZM231.577 377.227C230.526 377.227 229.619 376.995 228.857 376.531C228.099 376.062 227.514 375.409 227.102 374.571C226.695 373.728 226.491 372.748 226.491 371.631C226.491 370.513 226.695 369.528 227.102 368.676C227.514 367.819 228.087 367.152 228.821 366.673C229.56 366.19 230.421 365.949 231.406 365.949C231.974 365.949 232.536 366.044 233.089 366.233C233.643 366.422 234.148 366.73 234.602 367.156C235.057 367.578 235.419 368.136 235.689 368.832C235.959 369.528 236.094 370.385 236.094 371.403V372.114H227.685V370.665H234.389C234.389 370.049 234.266 369.5 234.02 369.017C233.778 368.534 233.433 368.153 232.983 367.874C232.538 367.594 232.012 367.455 231.406 367.455C230.739 367.455 230.161 367.62 229.673 367.952C229.19 368.278 228.819 368.705 228.558 369.23C228.298 369.756 228.168 370.319 228.168 370.92V371.886C228.168 372.71 228.31 373.409 228.594 373.982C228.883 374.55 229.283 374.983 229.794 375.281C230.305 375.575 230.9 375.722 231.577 375.722C232.017 375.722 232.415 375.66 232.77 375.537C233.13 375.409 233.44 375.22 233.7 374.969C233.961 374.713 234.162 374.396 234.304 374.017L235.923 374.472C235.753 375.021 235.466 375.504 235.064 375.92C234.661 376.332 234.164 376.654 233.572 376.886C232.981 377.114 232.315 377.227 231.577 377.227ZM242.763 377.227C241.854 377.227 241.051 376.998 240.355 376.538C239.659 376.074 239.115 375.421 238.722 374.578C238.329 373.731 238.132 372.729 238.132 371.574C238.132 370.428 238.329 369.434 238.722 368.591C239.115 367.748 239.661 367.097 240.362 366.638C241.063 366.179 241.873 365.949 242.791 365.949C243.501 365.949 244.063 366.067 244.474 366.304C244.891 366.536 245.208 366.801 245.426 367.099C245.649 367.393 245.821 367.634 245.945 367.824H246.087V362.455H247.763V377H246.143V375.324H245.945C245.821 375.523 245.646 375.774 245.419 376.077C245.192 376.375 244.867 376.643 244.446 376.879C244.025 377.111 243.464 377.227 242.763 377.227ZM242.99 375.722C243.662 375.722 244.231 375.546 244.695 375.196C245.159 374.841 245.511 374.351 245.753 373.726C245.994 373.096 246.115 372.369 246.115 371.545C246.115 370.731 245.997 370.018 245.76 369.408C245.523 368.792 245.173 368.314 244.709 367.973C244.245 367.627 243.672 367.455 242.99 367.455C242.28 367.455 241.688 367.637 241.214 368.001C240.746 368.361 240.393 368.851 240.156 369.472C239.924 370.087 239.808 370.778 239.808 371.545C239.808 372.322 239.927 373.027 240.163 373.662C240.405 374.292 240.76 374.794 241.229 375.168C241.702 375.537 242.289 375.722 242.99 375.722ZM259.901 377.256C259.209 377.256 258.582 377.125 258.018 376.865C257.455 376.6 257.008 376.219 256.676 375.722C256.345 375.22 256.179 374.614 256.179 373.903C256.179 373.278 256.302 372.772 256.548 372.384C256.795 371.991 257.124 371.683 257.536 371.46C257.947 371.238 258.402 371.072 258.899 370.963C259.401 370.849 259.905 370.759 260.412 370.693C261.075 370.608 261.612 370.544 262.024 370.501C262.441 370.454 262.744 370.376 262.933 370.267C263.127 370.158 263.224 369.969 263.224 369.699V369.642C263.224 368.941 263.033 368.397 262.649 368.009C262.27 367.62 261.695 367.426 260.923 367.426C260.123 367.426 259.496 367.601 259.041 367.952C258.587 368.302 258.267 368.676 258.082 369.074L256.491 368.506C256.776 367.843 257.154 367.327 257.628 366.957C258.106 366.583 258.627 366.323 259.19 366.176C259.759 366.025 260.317 365.949 260.866 365.949C261.217 365.949 261.619 365.991 262.074 366.077C262.533 366.157 262.976 366.325 263.402 366.581C263.833 366.837 264.19 367.223 264.474 367.739C264.759 368.255 264.901 368.946 264.901 369.812V377H263.224V375.523H263.139C263.026 375.759 262.836 376.013 262.571 376.283C262.306 376.553 261.953 376.782 261.513 376.972C261.072 377.161 260.535 377.256 259.901 377.256ZM260.156 375.75C260.819 375.75 261.378 375.62 261.832 375.359C262.292 375.099 262.637 374.763 262.869 374.351C263.106 373.939 263.224 373.506 263.224 373.051V371.517C263.153 371.602 262.997 371.68 262.756 371.751C262.519 371.818 262.244 371.877 261.932 371.929C261.624 371.976 261.323 372.019 261.03 372.057C260.741 372.09 260.507 372.118 260.327 372.142C259.891 372.199 259.484 372.291 259.105 372.419C258.731 372.542 258.428 372.729 258.196 372.98C257.969 373.226 257.855 373.562 257.855 373.989C257.855 374.571 258.071 375.011 258.501 375.31C258.937 375.603 259.489 375.75 260.156 375.75ZM276.49 366.091L272.456 377H270.751L266.717 366.091H268.535L271.547 374.784H271.66L274.672 366.091H276.49ZM281.58 377.256C280.889 377.256 280.262 377.125 279.698 376.865C279.135 376.6 278.687 376.219 278.356 375.722C278.024 375.22 277.859 374.614 277.859 373.903C277.859 373.278 277.982 372.772 278.228 372.384C278.474 371.991 278.803 371.683 279.215 371.46C279.627 371.238 280.082 371.072 280.579 370.963C281.081 370.849 281.585 370.759 282.092 370.693C282.754 370.608 283.292 370.544 283.704 370.501C284.121 370.454 284.424 370.376 284.613 370.267C284.807 370.158 284.904 369.969 284.904 369.699V369.642C284.904 368.941 284.712 368.397 284.329 368.009C283.95 367.62 283.375 367.426 282.603 367.426C281.803 367.426 281.175 367.601 280.721 367.952C280.266 368.302 279.947 368.676 279.762 369.074L278.171 368.506C278.455 367.843 278.834 367.327 279.308 366.957C279.786 366.583 280.307 366.323 280.87 366.176C281.438 366.025 281.997 365.949 282.546 365.949C282.897 365.949 283.299 365.991 283.754 366.077C284.213 366.157 284.656 366.325 285.082 366.581C285.513 366.837 285.87 367.223 286.154 367.739C286.438 368.255 286.58 368.946 286.58 369.812V377H284.904V375.523H284.819C284.705 375.759 284.516 376.013 284.251 376.283C283.986 376.553 283.633 376.782 283.192 376.972C282.752 377.161 282.215 377.256 281.58 377.256ZM281.836 375.75C282.499 375.75 283.058 375.62 283.512 375.359C283.971 375.099 284.317 374.763 284.549 374.351C284.786 373.939 284.904 373.506 284.904 373.051V371.517C284.833 371.602 284.677 371.68 284.435 371.751C284.199 371.818 283.924 371.877 283.612 371.929C283.304 371.976 283.003 372.019 282.71 372.057C282.421 372.09 282.186 372.118 282.006 372.142C281.571 372.199 281.164 372.291 280.785 372.419C280.411 372.542 280.108 372.729 279.876 372.98C279.648 373.226 279.535 373.562 279.535 373.989C279.535 374.571 279.75 375.011 280.181 375.31C280.617 375.603 281.168 375.75 281.836 375.75ZM289.64 377V366.091H291.316V377H289.64ZM290.492 364.273C290.165 364.273 289.883 364.161 289.647 363.939C289.415 363.716 289.299 363.449 289.299 363.136C289.299 362.824 289.415 362.556 289.647 362.334C289.883 362.111 290.165 362 290.492 362C290.819 362 291.098 362.111 291.33 362.334C291.567 362.556 291.685 362.824 291.685 363.136C291.685 363.449 291.567 363.716 291.33 363.939C291.098 364.161 290.819 364.273 290.492 364.273ZM296.062 362.455V377H294.386V362.455H296.062ZM302.342 377.256C301.651 377.256 301.023 377.125 300.46 376.865C299.896 376.6 299.449 376.219 299.118 375.722C298.786 375.22 298.62 374.614 298.62 373.903C298.62 373.278 298.743 372.772 298.99 372.384C299.236 371.991 299.565 371.683 299.977 371.46C300.389 371.238 300.843 371.072 301.341 370.963C301.842 370.849 302.347 370.759 302.853 370.693C303.516 370.608 304.054 370.544 304.466 370.501C304.882 370.454 305.185 370.376 305.375 370.267C305.569 370.158 305.666 369.969 305.666 369.699V369.642C305.666 368.941 305.474 368.397 305.091 368.009C304.712 367.62 304.136 367.426 303.365 367.426C302.565 367.426 301.937 367.601 301.483 367.952C301.028 368.302 300.708 368.676 300.524 369.074L298.933 368.506C299.217 367.843 299.596 367.327 300.069 366.957C300.547 366.583 301.068 366.323 301.632 366.176C302.2 366.025 302.759 365.949 303.308 365.949C303.658 365.949 304.061 365.991 304.515 366.077C304.975 366.157 305.417 366.325 305.843 366.581C306.274 366.837 306.632 367.223 306.916 367.739C307.2 368.255 307.342 368.946 307.342 369.812V377H305.666V375.523H305.581C305.467 375.759 305.278 376.013 305.012 376.283C304.747 376.553 304.395 376.782 303.954 376.972C303.514 377.161 302.976 377.256 302.342 377.256ZM302.598 375.75C303.261 375.75 303.819 375.62 304.274 375.359C304.733 375.099 305.079 374.763 305.311 374.351C305.547 373.939 305.666 373.506 305.666 373.051V371.517C305.595 371.602 305.439 371.68 305.197 371.751C304.96 371.818 304.686 371.877 304.373 371.929C304.065 371.976 303.765 372.019 303.471 372.057C303.182 372.09 302.948 372.118 302.768 372.142C302.333 372.199 301.925 372.291 301.547 372.419C301.172 372.542 300.869 372.729 300.637 372.98C300.41 373.226 300.297 373.562 300.297 373.989C300.297 374.571 300.512 375.011 300.943 375.31C301.378 375.603 301.93 375.75 302.598 375.75ZM310.629 377V362.455H312.305V367.824H312.447C312.57 367.634 312.74 367.393 312.958 367.099C313.181 366.801 313.498 366.536 313.91 366.304C314.326 366.067 314.89 365.949 315.6 365.949C316.519 365.949 317.328 366.179 318.029 366.638C318.73 367.097 319.277 367.748 319.67 368.591C320.063 369.434 320.259 370.428 320.259 371.574C320.259 372.729 320.063 373.731 319.67 374.578C319.277 375.421 318.732 376.074 318.036 376.538C317.34 376.998 316.538 377.227 315.629 377.227C314.928 377.227 314.367 377.111 313.945 376.879C313.524 376.643 313.2 376.375 312.972 376.077C312.745 375.774 312.57 375.523 312.447 375.324H312.248V377H310.629ZM312.276 371.545C312.276 372.369 312.397 373.096 312.638 373.726C312.88 374.351 313.233 374.841 313.697 375.196C314.161 375.546 314.729 375.722 315.401 375.722C316.102 375.722 316.687 375.537 317.156 375.168C317.629 374.794 317.984 374.292 318.221 373.662C318.462 373.027 318.583 372.322 318.583 371.545C318.583 370.778 318.465 370.087 318.228 369.472C317.996 368.851 317.643 368.361 317.17 368.001C316.701 367.637 316.112 367.455 315.401 367.455C314.719 367.455 314.147 367.627 313.683 367.973C313.219 368.314 312.868 368.792 312.631 369.408C312.395 370.018 312.276 370.731 312.276 371.545ZM322.823 377V366.091H324.499V377H322.823ZM323.675 364.273C323.349 364.273 323.067 364.161 322.83 363.939C322.598 363.716 322.482 363.449 322.482 363.136C322.482 362.824 322.598 362.556 322.83 362.334C323.067 362.111 323.349 362 323.675 362C324.002 362 324.281 362.111 324.513 362.334C324.75 362.556 324.869 362.824 324.869 363.136C324.869 363.449 324.75 363.716 324.513 363.939C324.281 364.161 324.002 364.273 323.675 364.273ZM329.245 362.455V377H327.569V362.455H329.245ZM332.315 377V366.091H333.991V377H332.315ZM333.168 364.273C332.841 364.273 332.559 364.161 332.322 363.939C332.09 363.716 331.974 363.449 331.974 363.136C331.974 362.824 332.09 362.556 332.322 362.334C332.559 362.111 332.841 362 333.168 362C333.494 362 333.774 362.111 334.006 362.334C334.242 362.556 334.361 362.824 334.361 363.136C334.361 363.449 334.242 363.716 334.006 363.939C333.774 364.161 333.494 364.273 333.168 364.273ZM341.806 366.091V367.511H336.152V366.091H341.806ZM337.8 363.477H339.476V373.875C339.476 374.348 339.545 374.704 339.682 374.94C339.824 375.172 340.004 375.329 340.222 375.409C340.444 375.485 340.679 375.523 340.925 375.523C341.11 375.523 341.261 375.513 341.38 375.494C341.498 375.471 341.593 375.452 341.664 375.438L342.005 376.943C341.891 376.986 341.732 377.028 341.529 377.071C341.325 377.118 341.067 377.142 340.755 377.142C340.281 377.142 339.817 377.04 339.363 376.837C338.913 376.633 338.539 376.323 338.24 375.906C337.947 375.49 337.8 374.964 337.8 374.33V363.477ZM345.407 381.091C345.123 381.091 344.869 381.067 344.647 381.02C344.424 380.977 344.27 380.935 344.185 380.892L344.611 379.415C345.018 379.519 345.378 379.557 345.691 379.528C346.003 379.5 346.28 379.36 346.522 379.109C346.768 378.863 346.993 378.463 347.196 377.909L347.509 377.057L343.475 366.091H345.293L348.304 374.784H348.418L351.429 366.091H353.248L348.617 378.591C348.408 379.154 348.15 379.621 347.843 379.99C347.535 380.364 347.177 380.641 346.77 380.821C346.368 381.001 345.913 381.091 345.407 381.091Z" fill="#433F3F"/>
</svg>
