<svg width="168" height="190" viewBox="0 0 168 190" fill="none" xmlns="http://www.w3.org/2000/svg">
<g filter="url(#filter0_d_211_2317)">
<path d="M83 20L111.275 36.0263L139.292 52.5L139.55 85L139.292 117.5L111.275 133.974L83 150L54.725 133.974L26.7083 117.5L26.45 85L26.7083 52.5L54.725 36.0263L83 20Z" fill="#363ABF"/>
</g>
<path d="M66 92.1429L83.8571 110M83.8571 110L101.714 92.1429M83.8571 110V60" stroke="white" stroke-width="7.14286" stroke-linecap="round" stroke-linejoin="round"/>
<g filter="url(#filter1_d_211_2317)">
<path d="M60.4225 45.5287L83.5 32.4484L106.577 45.5286L129.444 58.9742L129.655 85.5L129.444 112.026L106.578 125.471L83.5 138.552L60.4224 125.471L37.556 112.026L37.3451 85.5L37.556 58.9742L60.4225 45.5287Z" stroke="white" stroke-width="6" shape-rendering="crispEdges"/>
</g>
<defs>
<filter id="filter0_d_211_2317" x="0.450195" y="0" width="173.1" height="190" filterUnits="userSpaceOnUse" color-interpolation-filters="sRGB">
<feFlood flood-opacity="0" result="BackgroundImageFix"/>
<feColorMatrix in="SourceAlpha" type="matrix" values="0 0 0 0 0 0 0 0 0 0 0 0 0 0 0 0 0 0 127 0" result="hardAlpha"/>
<feOffset dx="4" dy="10"/>
<feGaussianBlur stdDeviation="15"/>
<feComposite in2="hardAlpha" operator="out"/>
<feColorMatrix type="matrix" values="0 0 0 0 0.262745 0 0 0 0 0.380392 0 0 0 0 0.933333 0 0 0 0.4 0"/>
<feBlend mode="normal" in2="BackgroundImageFix" result="effect1_dropShadow_211_2317"/>
<feBlend mode="normal" in="SourceGraphic" in2="effect1_dropShadow_211_2317" result="shape"/>
</filter>
<filter id="filter1_d_211_2317" x="30.3447" y="29" width="106.311" height="121" filterUnits="userSpaceOnUse" color-interpolation-filters="sRGB">
<feFlood flood-opacity="0" result="BackgroundImageFix"/>
<feColorMatrix in="SourceAlpha" type="matrix" values="0 0 0 0 0 0 0 0 0 0 0 0 0 0 0 0 0 0 127 0" result="hardAlpha"/>
<feOffset dy="4"/>
<feGaussianBlur stdDeviation="2"/>
<feComposite in2="hardAlpha" operator="out"/>
<feColorMatrix type="matrix" values="0 0 0 0 0 0 0 0 0 0 0 0 0 0 0 0 0 0 0.25 0"/>
<feBlend mode="normal" in2="BackgroundImageFix" result="effect1_dropShadow_211_2317"/>
<feBlend mode="normal" in="SourceGraphic" in2="effect1_dropShadow_211_2317" result="shape"/>
</filter>
</defs>
</svg>
